#define Font7x13_width 112
#define Font7x13_height 208
#define Font7x13_glyph_h 13
#define Font7x13_glyph_w 7
static char Font7x13_bits[] = {
	0x0, 0x80, 0xa, 0x0, 0x0, 0x0, 0x0, 0x0, 0x0, 0x0, 0x80, 0x40, 0x0, 0x0, 
	0x0, 0x40, 0x15, 0x0, 0x0, 0x0, 0x0, 0x0, 0x0, 0x0, 0x80, 0x40, 0x0, 0x0, 
	0x88, 0x3f, 0x0, 0x0, 0x0, 0x20, 0x10, 0x8, 0x0, 0x2, 0x0, 0x0, 0x0, 0x0, 
	0x8, 0x0, 0x0, 0x0, 0x0, 0x20, 0x10, 0x8, 0x0, 0x2, 0x0, 0x0, 0x0, 0x0, 
	0x8, 0x0, 0x0, 0x0, 0x0, 0x20, 0x10, 0x8, 0x0, 0x2, 0x0, 0x0, 0x0, 0x0, 
	0x8, 0xc0, 0x1f, 0x0, 0x0, 0x20, 0x10, 0x8, 0x0, 0x2, 0x0, 0x0, 0x80, 0x0, 
	0x8, 0x0, 0x0, 0x0, 0x0, 0x20, 0x10, 0x8, 0x0, 0x2, 0x36, 0x0, 0x40, 0x0, 
	0x8, 0x0, 0x0, 0x0, 0x0, 0x20, 0x10, 0x8, 0x0, 0x82, 0xc1, 0xf8, 0xfd, 0x0, 
	0x7f, 0x0, 0xe0, 0xf, 0x0, 0xe0, 0x1f, 0xff, 0x3f, 0x62, 0x0, 0x93, 0x20, 0x0, 
	0x8, 0x0, 0x0, 0x0, 0x0, 0x20, 0x10, 0x0, 0x4, 0x82, 0xc1, 0x90, 0x10, 0x0, 
	0x8, 0x0, 0x0, 0x0, 0x0, 0x20, 0x10, 0x0, 0x4, 0x2, 0x36, 0x90, 0xfc, 0x0, 
	0x8, 0x0, 0x0, 0xf0, 0x7, 0x20, 0x10, 0x0, 0x4, 0x2, 0x0, 0x90, 0x8, 0x0, 
	0x8, 0x0, 0x0, 0x0, 0x0, 0x20, 0x10, 0x0, 0x4, 0xe2, 0xf7, 0x93, 0x4, 0x0, 
	0x8, 0x0, 0x0, 0x0, 0x0, 0x20, 0x10, 0x0, 0x4, 0x2, 0x0, 0x0, 0x0, 0x0, 
	0x8, 0x0, 0x0, 0x0, 0xf8, 0x23, 0x10, 0x0, 0x4, 0x2, 0x0, 0x0, 0x0, 0x0, 
	0x0, 0x0, 0x0, 0x0, 0x0, 0x0, 0x0, 0x0, 0x0, 0x0, 0x0, 0x0, 0x0, 0x0, 
	0x0, 0x0, 0x0, 0x0, 0x0, 0x0, 0x0, 0x0, 0x0, 0x0, 0x0, 0x0, 0x0, 0x0, 
	0x1c, 0x0, 0x0, 0x41, 0x1, 0x0, 0x44, 0x0, 0x4, 0x84, 0x0, 0x0, 0x0, 0x0, 
	0x22, 0x0, 0x0, 0x41, 0xa1, 0x20, 0x4a, 0x0, 0x4, 0x2, 0x1, 0x0, 0x0, 0x0, 
	0x2, 0x0, 0x0, 0x41, 0xa1, 0xf0, 0x24, 0x6, 0x4, 0x2, 0x21, 0x41, 0x0, 0x0, 
	0x2, 0x0, 0x0, 0x1, 0xf0, 0x29, 0x10, 0x9, 0x0, 0x1, 0xc2, 0x40, 0x0, 0x0, 
	0x7, 0x6, 0x0, 0x1, 0xa0, 0x70, 0x10, 0x9, 0x0, 0x1, 0xf2, 0xf3, 0x1, 0x0, 
	0x2, 0x0, 0x0, 0x1, 0xf0, 0xa1, 0x8, 0x6, 0x0, 0x1, 0xc2, 0x40, 0x0, 0x0, 
	0x2, 0x0, 0x0, 0x1, 0xa0, 0x78, 0x24, 0x29, 0x0, 0x2, 0x21, 0x41, 0x0, 0x0, 
	0x22, 0x0, 0x0, 0x0, 0xa0, 0x20, 0x52, 0x11, 0x0, 0x2, 0x1, 0x0, 0x70, 0x0, 
	0x1d, 0x0, 0x0, 0x1, 0x0, 0x0, 0x22, 0x2e, 0x0, 0x84, 0x0, 0x0, 0x30, 0x0, 
	0x0, 0x0, 0x0, 0x0, 0x0, 0x0, 0x0, 0x0, 0x0, 0x0, 0x0, 0x0, 0x8, 0x0, 
	0x0, 0x0, 0x0, 0x0, 0x0, 0x0, 0x0, 0x0, 0x0, 0x0, 0x0, 0x0, 0x0, 0x0, 
	0x0, 0x0, 0x0, 0x0, 0x0, 0x0, 0x0, 0x0, 0x0, 0x0, 0x0, 0x0, 0x0, 0x0, 
	0x0, 0x0, 0x0, 0x0, 0x0, 0x0, 0x0, 0x0, 0x0, 0x0, 0x0, 0x0, 0x0, 0x0, 
	0x0, 0x0, 0x88, 0x81, 0xf0, 0xfc, 0x20, 0x3f, 0xce, 0xcf, 0xe3, 0x1, 0x0, 0x0, 
	0x0, 0x0, 0x48, 0xc2, 0x8, 0x81, 0x30, 0x1, 0x1, 0x28, 0x14, 0x2, 0x0, 0x0, 
	0x0, 0x0, 0x24, 0xa4, 0x8, 0x41, 0x28, 0x81, 0x0, 0x24, 0x14, 0x42, 0x20, 0x0, 
	0x0, 0x0, 0x24, 0x84, 0x0, 0x21, 0x24, 0x9d, 0x0, 0x22, 0x14, 0xe3, 0x70, 0x0, 
	0x3e, 0x0, 0x22, 0x84, 0x80, 0x70, 0x22, 0xa3, 0xe, 0xc2, 0xe3, 0x42, 0x20, 0x0, 
	0x0, 0x0, 0x21, 0x84, 0x60, 0x80, 0x22, 0xa0, 0x11, 0x21, 0x4, 0x2, 0x0, 0x0, 
	0x0, 0x0, 0x21, 0x84, 0x10, 0x80, 0x7e, 0xa0, 0x10, 0x21, 0x4, 0x2, 0x0, 0x0, 
	0x0, 0x84, 0x40, 0x82, 0x8, 0x84, 0x20, 0xa1, 0x90, 0x20, 0x4, 0x41, 0x70, 0x0, 
	0x0, 0x8e, 0x80, 0xe1, 0xfb, 0x79, 0x20, 0x1e, 0x8f, 0xc0, 0xe3, 0xe0, 0x30, 0x0, 
	0x0, 0x4, 0x0, 0x0, 0x0, 0x0, 0x0, 0x0, 0x0, 0x0, 0x0, 0x40, 0x8, 0x0, 
	0x0, 0x0, 0x0, 0x0, 0x0, 0x0, 0x0, 0x0, 0x0, 0x0, 0x0, 0x0, 0x0, 0x0, 
	0x0, 0x0, 0x0, 0x0, 0x0, 0x0, 0x0, 0x0, 0x0, 0x0, 0x0, 0x0, 0x0, 0x0, 
	0x0, 0x0, 0x0, 0x0, 0x0, 0x0, 0x0, 0x0, 0x0, 0x0, 0x0, 0x0, 0x0, 0x0, 
	0x20, 0x80, 0xc0, 0xe3, 0x61, 0x7c, 0x3c, 0x9f, 0xdf, 0xcf, 0x13, 0xf2, 0xe1, 0x0, 
	0x10, 0x0, 0x21, 0x14, 0x92, 0x88, 0x42, 0xa2, 0x40, 0x20, 0x14, 0x42, 0x40, 0x0, 
	0x8, 0x0, 0x22, 0x14, 0xa, 0x89, 0x2, 0xa2, 0x40, 0x20, 0x10, 0x42, 0x40, 0x0, 
	0x84, 0x1f, 0x4, 0x94, 0xb, 0x89, 0x2, 0xa2, 0x40, 0x20, 0x10, 0x42, 0x40, 0x0, 
	0x2, 0x0, 0x8, 0x52, 0xa, 0x79, 0x2, 0xa2, 0xc7, 0x23, 0xf0, 0x43, 0x40, 0x0, 
	0x4, 0x0, 0x4, 0x51, 0xfb, 0x89, 0x2, 0xa2, 0x40, 0x20, 0x17, 0x42, 0x40, 0x0, 
	0x88, 0x1f, 0x2, 0x91, 0xa, 0x89, 0x2, 0xa2, 0x40, 0x20, 0x14, 0x42, 0x40, 0x0, 
	0x10, 0x0, 0x1, 0x10, 0x8, 0x89, 0x42, 0xa2, 0x40, 0x20, 0x16, 0x42, 0x44, 0x0, 
	0x20, 0x80, 0x0, 0xe1, 0x9, 0x7d, 0x3c, 0x9f, 0x5f, 0xc0, 0x15, 0xf2, 0x39, 0x0, 
	0x0, 0x0, 0x0, 0x0, 0x0, 0x0, 0x0, 0x0, 0x0, 0x0, 0x0, 0x0, 0x0, 0x0, 
	0x0, 0x0, 0x0, 0x0, 0x0, 0x0, 0x0, 0x0, 0x0, 0x0, 0x0, 0x0, 0x0, 0x0, 
	0x0, 0x0, 0x0, 0x0, 0x0, 0x0, 0x0, 0x0, 0x0, 0x0, 0x0, 0x0, 0x0, 0x0, 
	0x0, 0x0, 0x0, 0x0, 0x0, 0x0, 0x0, 0x0, 0x0, 0x0, 0x0, 0x0, 0x0, 0x0, 
	0xa1, 0x40, 0x28, 0xe4, 0xf9, 0x78, 0x3e, 0x1e, 0x5f, 0x28, 0x14, 0xa, 0x89, 0x0, 
	0x91, 0xc0, 0x2c, 0x14, 0xa, 0x85, 0x42, 0x21, 0x44, 0x28, 0x14, 0xa, 0x89, 0x0, 
	0x89, 0xc0, 0x6c, 0x14, 0xa, 0x85, 0x42, 0x1, 0x44, 0x28, 0x14, 0x92, 0x50, 0x0, 
	0x85, 0x40, 0xab, 0x14, 0xa, 0x85, 0x42, 0x1, 0x44, 0x48, 0x12, 0x92, 0x50, 0x0, 
	0x83, 0x40, 0x2b, 0x15, 0xfa, 0x84, 0x3e, 0x1e, 0x44, 0x48, 0xd2, 0x62, 0x20, 0x0, 
	0x85, 0x40, 0x28, 0x16, 0xa, 0x84, 0xa, 0x20, 0x44, 0x48, 0xd2, 0x92, 0x20, 0x0, 
	0x89, 0x40, 0x28, 0x14, 0xa, 0x94, 0x12, 0x20, 0x44, 0x88, 0x31, 0x93, 0x20, 0x0, 
	0x91, 0x40, 0x28, 0x14, 0xa, 0xa4, 0x22, 0x21, 0x44, 0x88, 0x31, 0xb, 0x21, 0x0, 
	0xa1, 0x5f, 0x28, 0xe4, 0x9, 0x78, 0x42, 0x1e, 0x84, 0x87, 0x11, 0xa, 0x21, 0x0, 
	0x0, 0x0, 0x0, 0x0, 0x0, 0x80, 0x0, 0x0, 0x0, 0x0, 0x0, 0x0, 0x0, 0x0, 
	0x0, 0x0, 0x0, 0x0, 0x0, 0x0, 0x0, 0x0, 0x0, 0x0, 0x0, 0x0, 0x0, 0x0, 
	0x0, 0x0, 0x0, 0x0, 0x0, 0x0, 0x0, 0x0, 0x0, 0x0, 0x0, 0x0, 0x0, 0x0, 
	0x0, 0xf, 0xc0, 0x3, 0x0, 0x10, 0x0, 0x0, 0x0, 0x0, 0x0, 0x0, 0x0, 0x0, 
	0x3f, 0x81, 0x0, 0x82, 0x0, 0x20, 0x0, 0x1, 0x0, 0x8, 0xc0, 0x1, 0x4, 0x0, 
	0x20, 0x81, 0x0, 0x42, 0x1, 0x0, 0x0, 0x1, 0x0, 0x8, 0x20, 0x2, 0x4, 0x0, 
	0x10, 0x1, 0x1, 0x22, 0x2, 0x0, 0x0, 0x1, 0x0, 0x8, 0x20, 0x0, 0x4, 0x0, 
	0x8, 0x1, 0x1, 0x2, 0x0, 0x0, 0x3c, 0x1d, 0x8f, 0xcb, 0x23, 0x70, 0x75, 0x0, 
	0xc, 0x1, 0x2, 0x2, 0x0, 0x0, 0x40, 0xa3, 0x50, 0x2c, 0xf4, 0x88, 0x8c, 0x0, 
	0x4, 0x1, 0x4, 0x2, 0x0, 0x0, 0x7c, 0xa1, 0x40, 0xe8, 0x27, 0x88, 0x84, 0x0, 
	0x2, 0x1, 0x4, 0x2, 0x0, 0x0, 0x42, 0xa1, 0x40, 0x28, 0x20, 0x70, 0x84, 0x0, 
	0x1, 0x1, 0x8, 0x2, 0x0, 0x0, 0x62, 0xa3, 0x50, 0x2c, 0x24, 0x8, 0x84, 0x0, 
	0x3f, 0x1, 0x8, 0x2, 0x0, 0x0, 0x5c, 0x1d, 0x8f, 0xcb, 0x23, 0xf0, 0x84, 0x0, 
	0x0, 0xf, 0xc0, 0x3, 0xf8, 0x1, 0x0, 0x0, 0x0, 0x0, 0x0, 0x8, 0x1, 0x0, 
	0x0, 0x0, 0x0, 0x0, 0x0, 0x0, 0x0, 0x0, 0x0, 0x0, 0x0, 0xf0, 0x0, 0x0, 
	0x0, 0x0, 0x0, 0x0, 0x0, 0x0, 0x0, 0x0, 0x0, 0x0, 0x0, 0x0, 0x0, 0x0, 
	0x0, 0x0, 0x0, 0x0, 0x0, 0x0, 0x0, 0x0, 0x0, 0x0, 0x0, 0x0, 0x0, 0x0, 
	0x0, 0x40, 0x80, 0x1, 0x0, 0x0, 0x0, 0x0, 0x0, 0x0, 0x0, 0x0, 0x0, 0x0, 
	0x8, 0x50, 0x0, 0x1, 0x0, 0x0, 0x0, 0x0, 0x0, 0x40, 0x0, 0x0, 0x0, 0x0, 
	0x0, 0x40, 0x0, 0x1, 0x0, 0x0, 0x0, 0x0, 0x0, 0x40, 0x0, 0x0, 0x0, 0x0, 
	0xc, 0x58, 0x4, 0x61, 0xe9, 0x78, 0x3a, 0xae, 0x8e, 0xe7, 0x11, 0x12, 0x89, 0x0, 
	0x8, 0x50, 0x2, 0xa1, 0x1a, 0x85, 0x46, 0x31, 0x51, 0x48, 0x10, 0x12, 0x89, 0x0, 
	0x8, 0xd0, 0x1, 0xa1, 0xa, 0x85, 0x42, 0x21, 0x81, 0x41, 0x10, 0x12, 0xa9, 0x0, 
	0x8, 0x50, 0x2, 0xa1, 0xa, 0x85, 0x46, 0x31, 0x1, 0x46, 0x10, 0xa2, 0xa8, 0x0, 
	0x8, 0x50, 0x4, 0xa1, 0xa, 0x85, 0x3a, 0x2e, 0x41, 0x48, 0x14, 0xa3, 0xa8, 0x0, 
	0x3e, 0x51, 0xc8, 0x27, 0xa, 0x79, 0x2, 0x20, 0x81, 0x87, 0xe3, 0x42, 0x50, 0x0, 
	0x0, 0x11, 0x0, 0x0, 0x0, 0x0, 0x2, 0x20, 0x0, 0x0, 0x0, 0x0, 0x0, 0x0, 
	0x0, 0xe, 0x0, 0x0, 0x0, 0x0, 0x2, 0x20, 0x0, 0x0, 0x0, 0x0, 0x0, 0x0, 
	0x0, 0x0, 0x0, 0x0, 0x0, 0x0, 0x0, 0x0, 0x0, 0x0, 0x0, 0x0, 0x0, 0x0, 
	0x0, 0x0, 0x0, 0x7, 0x70, 0x0, 0x0, 0x0, 0x0, 0x0, 0x0, 0x0, 0x0, 0x0, 
	0x0, 0x0, 0x80, 0x80, 0x80, 0x90, 0x6a, 0xb5, 0x5a, 0xad, 0x56, 0xab, 0xd5, 0x0, 
	0x0, 0x0, 0x80, 0x80, 0x80, 0xa8, 0x0, 0x0, 0x0, 0x0, 0x0, 0x0, 0x0, 0x0, 
	0x0, 0x0, 0x80, 0x80, 0x80, 0x48, 0x42, 0xa1, 0x50, 0x28, 0x14, 0xa, 0x85, 0x0, 
	0xa1, 0xd0, 0xf, 0x81, 0x40, 0x0, 0x0, 0x0, 0x0, 0x0, 0x0, 0x0, 0x0, 0x0, 
	0x92, 0x10, 0xc4, 0x80, 0x80, 0x1, 0x42, 0xa1, 0x50, 0x28, 0x14, 0xa, 0x85, 0x0, 
	0x8c, 0x10, 0x2, 0x81, 0x40, 0x0, 0x0, 0x0, 0x0, 0x0, 0x0, 0x0, 0x0, 0x0, 
	0x8c, 0x18, 0x81, 0x80, 0x80, 0x0, 0x42, 0xa1, 0x50, 0x28, 0x14, 0xa, 0x85, 0x0, 
	0x12, 0x97, 0x80, 0x80, 0x80, 0x0, 0x0, 0x0, 0x0, 0x0, 0x0, 0x0, 0x0, 0x0, 
	0x21, 0xd0, 0x8f, 0x80, 0x80, 0x0, 0x56, 0xab, 0xd5, 0x6a, 0xb5, 0x5a, 0xad, 0x0, 
	0x80, 0x10, 0x0, 0x7, 0x70, 0x0, 0x0, 0x0, 0x0, 0x0, 0x0, 0x0, 0x0, 0x0, 
	0x0, 0xf, 0x0, 0x0, 0x0, 0x0, 0x0, 0x0, 0x0, 0x0, 0x0, 0x0, 0x0, 0x0, 
	0x0, 0x0, 0x0, 0x0, 0x0, 0x0, 0x0, 0x0, 0x0, 0x0, 0x0, 0x0, 0x0, 0x0, 
	0x0, 0x0, 0x0, 0x0, 0x0, 0x0, 0x0, 0x0, 0x0, 0x0, 0x0, 0x0, 0x0, 0x0, 
	0xb5, 0x5a, 0xad, 0x56, 0xab, 0xd5, 0x6a, 0xb5, 0x5a, 0xad, 0x56, 0xab, 0xd5, 0x0, 
	0x0, 0x0, 0x0, 0x0, 0x0, 0x0, 0x0, 0x0, 0x0, 0x0, 0x0, 0x0, 0x0, 0x0, 
	0xa1, 0x50, 0x28, 0x14, 0xa, 0x85, 0x42, 0xa1, 0x50, 0x28, 0x14, 0xa, 0x85, 0x0, 
	0x0, 0x0, 0x0, 0x0, 0x0, 0x0, 0x0, 0x0, 0x0, 0x0, 0x0, 0x0, 0x0, 0x0, 
	0xa1, 0x50, 0x28, 0x14, 0xa, 0x85, 0x42, 0xa1, 0x50, 0x28, 0x14, 0xa, 0x85, 0x0, 
	0x0, 0x0, 0x0, 0x0, 0x0, 0x0, 0x0, 0x0, 0x0, 0x0, 0x0, 0x0, 0x0, 0x0, 
	0xa1, 0x50, 0x28, 0x14, 0xa, 0x85, 0x42, 0xa1, 0x50, 0x28, 0x14, 0xa, 0x85, 0x0, 
	0x0, 0x0, 0x0, 0x0, 0x0, 0x0, 0x0, 0x0, 0x0, 0x0, 0x0, 0x0, 0x0, 0x0, 
	0xab, 0xd5, 0x6a, 0xb5, 0x5a, 0xad, 0x56, 0xab, 0xd5, 0x6a, 0xb5, 0x5a, 0xad, 0x0, 
	0x0, 0x0, 0x0, 0x0, 0x0, 0x0, 0x0, 0x0, 0x0, 0x0, 0x0, 0x0, 0x0, 0x0, 
	0x0, 0x0, 0x0, 0x0, 0x0, 0x0, 0x0, 0x0, 0x0, 0x0, 0x0, 0x0, 0x0, 0x0, 
	0x0, 0x0, 0x0, 0x0, 0x0, 0x0, 0x0, 0x0, 0x0, 0x0, 0x0, 0x0, 0x0, 0x0, 
	0x0, 0x0, 0x0, 0x0, 0x0, 0x0, 0x0, 0x0, 0x0, 0x0, 0x0, 0x0, 0x0, 0x0, 
	0xb5, 0x5a, 0xad, 0x56, 0xab, 0xd5, 0x6a, 0xb5, 0x1a, 0x0, 0x81, 0xe0, 0x0, 0x0, 
	0x0, 0x0, 0x0, 0x0, 0x0, 0x0, 0x0, 0x0, 0x0, 0x0, 0xc0, 0x11, 0x1, 0x0, 
	0xa1, 0x50, 0x28, 0x14, 0xa, 0x85, 0x42, 0xa1, 0x10, 0x0, 0xa1, 0x12, 0x84, 0x0, 
	0x0, 0x0, 0x0, 0x0, 0x0, 0x0, 0x0, 0x0, 0x0, 0x0, 0xa1, 0x10, 0x78, 0x0, 
	0xa1, 0x50, 0x28, 0x14, 0xa, 0x85, 0x42, 0xa1, 0x10, 0x0, 0xa1, 0x38, 0x48, 0x0, 
	0x0, 0x0, 0x0, 0x0, 0x0, 0x0, 0x0, 0x0, 0x0, 0x0, 0xa1, 0x12, 0x48, 0x0, 
	0xa1, 0x50, 0x28, 0x14, 0xa, 0x85, 0x42, 0xa1, 0x10, 0x0, 0xc1, 0x11, 0x78, 0x0, 
	0x0, 0x0, 0x0, 0x0, 0x0, 0x0, 0x0, 0x0, 0x0, 0x0, 0x81, 0x10, 0x85, 0x0, 
	0xab, 0xd5, 0x6a, 0xb5, 0x5a, 0xad, 0x56, 0xab, 0x15, 0x0, 0x1, 0xe8, 0x0, 0x0, 
	0x0, 0x0, 0x0, 0x0, 0x0, 0x0, 0x0, 0x0, 0x0, 0x0, 0x0, 0x0, 0x0, 0x0, 
	0x0, 0x0, 0x0, 0x0, 0x0, 0x0, 0x0, 0x0, 0x0, 0x0, 0x0, 0x0, 0x0, 0x0, 
	0x0, 0x0, 0x0, 0x0, 0x0, 0x0, 0x0, 0x0, 0x0, 0x0, 0x0, 0x0, 0x0, 0x0, 
	0x0, 0x0, 0x3, 0x0, 0x0, 0x0, 0x0, 0x0, 0x0, 0x0, 0x0, 0x20, 0x38, 0x0, 
	0x11, 0x84, 0x44, 0xe2, 0xe1, 0x0, 0x0, 0x0, 0x8f, 0x8f, 0x1, 0x50, 0x20, 0x0, 
	0x11, 0x84, 0x40, 0x12, 0x2, 0xa1, 0x0, 0x80, 0x10, 0x40, 0x82, 0x40, 0x10, 0x0, 
	0xa, 0x4, 0x3, 0xd0, 0xe2, 0x51, 0x0, 0x80, 0x16, 0x40, 0x82, 0x20, 0x20, 0x0, 
	0xa, 0x84, 0x4, 0x50, 0x12, 0x29, 0x0, 0x80, 0x1a, 0x80, 0xe1, 0x13, 0x28, 0x0, 
	0x1f, 0x80, 0x4, 0x50, 0xe2, 0x15, 0x7c, 0x9e, 0x1a, 0x0, 0x80, 0x70, 0x10, 0x0, 
	0x4, 0x4, 0x3, 0x50, 0x2, 0x28, 0x40, 0x80, 0x16, 0x0, 0x80, 0x0, 0x0, 0x0, 
	0x1f, 0x4, 0x4, 0xd0, 0xf2, 0x51, 0x40, 0x80, 0x1a, 0x0, 0x0, 0x0, 0x0, 0x0, 
	0x4, 0x84, 0x4, 0x10, 0x2, 0xa0, 0x0, 0x80, 0x10, 0x0, 0xe0, 0x3, 0x0, 0x0, 
	0x4, 0x4, 0x3, 0xe0, 0x1, 0x0, 0x0, 0x0, 0xf, 0x0, 0x0, 0x0, 0x0, 0x0, 
	0x0, 0x0, 0x0, 0x0, 0x0, 0x0, 0x0, 0x0, 0x0, 0x0, 0x0, 0x0, 0x0, 0x0, 
	0x0, 0x0, 0x0, 0x0, 0x0, 0x0, 0x0, 0x0, 0x0, 0x0, 0x0, 0x0, 0x0, 0x0, 
	0x0, 0x0, 0x0, 0x0, 0x0, 0x0, 0x0, 0x0, 0x0, 0x0, 0x0, 0x0, 0x0, 0x0, 
	0x8, 0x0, 0x0, 0x0, 0x20, 0x0, 0x0, 0x2, 0xc1, 0x1, 0x40, 0x40, 0x30, 0x0, 
	0x4, 0x80, 0xf, 0x0, 0x30, 0x30, 0x0, 0x83, 0x1, 0x81, 0x80, 0x20, 0x48, 0x0, 
	0x0, 0xc0, 0x5, 0x0, 0x20, 0x48, 0xa, 0x2, 0x81, 0x0, 0x0, 0x0, 0x0, 0x0, 
	0x0, 0xc0, 0x5, 0x0, 0x20, 0x48, 0x14, 0x2, 0x1, 0x81, 0xc0, 0x60, 0x30, 0x0, 
	0x80, 0xd0, 0x5, 0x0, 0x20, 0x30, 0x28, 0x22, 0x49, 0x89, 0x20, 0x91, 0x48, 0x0, 
	0x80, 0x90, 0x85, 0x1, 0x70, 0x0, 0x50, 0xb7, 0x97, 0x4c, 0x10, 0xa, 0x85, 0x0, 
	0x80, 0x10, 0x5, 0x0, 0x0, 0x78, 0x28, 0x28, 0x10, 0x2a, 0x10, 0xa, 0x85, 0x0, 
	0x80, 0x10, 0x5, 0x0, 0x0, 0x0, 0x14, 0x28, 0x8, 0x2a, 0xf4, 0xfb, 0xfd, 0x0, 
	0x80, 0x19, 0x5, 0x0, 0x0, 0x0, 0xa, 0x38, 0x4, 0x2e, 0x14, 0xa, 0x85, 0x0, 
	0x80, 0x16, 0x5, 0x0, 0x0, 0x0, 0x0, 0x20, 0x1c, 0xc8, 0x13, 0xa, 0x85, 0x0, 
	0x80, 0x0, 0x0, 0x80, 0x0, 0x0, 0x0, 0x0, 0x0, 0x0, 0x0, 0x0, 0x0, 0x0, 
	0x0, 0x0, 0x0, 0x40, 0x0, 0x0, 0x0, 0x0, 0x0, 0x0, 0x0, 0x0, 0x0, 0x0, 
	0x0, 0x0, 0x0, 0x0, 0x0, 0x0, 0x0, 0x0, 0x0, 0x0, 0x0, 0x0, 0x0, 0x0, 
	0x26, 0x9, 0x3, 0x0, 0x20, 0x20, 0x18, 0x12, 0x2, 0x2, 0x21, 0x2, 0x98, 0x0, 
	0x19, 0x89, 0x44, 0xe7, 0x41, 0x10, 0x24, 0x12, 0x4, 0x81, 0x22, 0xfa, 0x64, 0x0, 
	0x0, 0x0, 0xa3, 0x10, 0x2, 0x0, 0x0, 0x0, 0x0, 0x0, 0x0, 0x10, 0x1, 0x0, 
	0xc, 0x6, 0xa3, 0x10, 0xf8, 0xfd, 0x7e, 0x3f, 0x9f, 0xcf, 0xe7, 0x13, 0x85, 0x0, 
	0x12, 0x89, 0xa4, 0x10, 0x8, 0x4, 0x2, 0x1, 0x4, 0x2, 0x81, 0x10, 0x8d, 0x0, 
	0xa1, 0x50, 0xa8, 0x13, 0x8, 0x4, 0x2, 0x1, 0x4, 0x2, 0x81, 0x38, 0x95, 0x0, 
	0xa1, 0x50, 0xe8, 0x10, 0x78, 0x3c, 0x1e, 0xf, 0x4, 0x2, 0x81, 0x10, 0x95, 0x0, 
	0xbf, 0xdf, 0xaf, 0x10, 0x8, 0x4, 0x2, 0x1, 0x4, 0x2, 0x81, 0x10, 0xa5, 0x0, 
	0xa1, 0x50, 0xa8, 0x10, 0xa, 0x4, 0x2, 0x1, 0x4, 0x2, 0x81, 0x10, 0xc5, 0x0, 
	0xa1, 0x50, 0xa8, 0xe7, 0xf9, 0xfd, 0x7e, 0x3f, 0x9f, 0xcf, 0xe7, 0xfb, 0x84, 0x0, 
	0x0, 0x0, 0x0, 0x80, 0x0, 0x0, 0x0, 0x0, 0x0, 0x0, 0x0, 0x0, 0x0, 0x0, 
	0x0, 0x0, 0x0, 0x40, 0x0, 0x0, 0x0, 0x0, 0x0, 0x0, 0x0, 0x0, 0x0, 0x0, 
	0x0, 0x0, 0x0, 0x0, 0x0, 0x0, 0x0, 0x0, 0x0, 0x0, 0x0, 0x0, 0x0, 0x0, 
	0x4, 0x4, 0xc3, 0x24, 0x1, 0x80, 0x8, 0x8, 0x86, 0x4, 0x2, 0x0, 0x0, 0x0, 
	0x8, 0x82, 0x24, 0x23, 0x1, 0x78, 0x10, 0x4, 0x89, 0x4, 0x11, 0x60, 0x10, 0x0, 
	0x0, 0x0, 0x0, 0x0, 0x0, 0xc4, 0x0, 0x0, 0x0, 0x0, 0xf0, 0x91, 0x20, 0x0, 
	0x1e, 0x8f, 0xc7, 0xe3, 0x9, 0xa5, 0x42, 0xa1, 0x50, 0x48, 0x14, 0x92, 0x0, 0x0, 
	0xa1, 0x50, 0x28, 0x14, 0x92, 0xa4, 0x42, 0xa1, 0x50, 0x48, 0x14, 0x52, 0x78, 0x0, 
	0xa1, 0x50, 0x28, 0x14, 0x62, 0x94, 0x42, 0xa1, 0x50, 0x88, 0x12, 0x52, 0x80, 0x0, 
	0xa1, 0x50, 0x28, 0x14, 0x62, 0x94, 0x42, 0xa1, 0x50, 0x8, 0xf1, 0x91, 0xf8, 0x0, 
	0xa1, 0x50, 0x28, 0x14, 0x92, 0x94, 0x42, 0xa1, 0x50, 0x8, 0x11, 0x10, 0x85, 0x0, 
	0xa1, 0x50, 0x28, 0x14, 0xa, 0x8d, 0x42, 0xa1, 0x50, 0x8, 0x11, 0x10, 0xc5, 0x0, 
	0x1e, 0x8f, 0xc7, 0xe3, 0x1, 0x78, 0x3c, 0x1e, 0x8f, 0x7, 0x11, 0xd0, 0xb8, 0x0, 
	0x0, 0x0, 0x0, 0x0, 0x0, 0x4, 0x0, 0x0, 0x0, 0x0, 0x0, 0x0, 0x0, 0x0, 
	0x0, 0x0, 0x0, 0x0, 0x0, 0x0, 0x0, 0x0, 0x0, 0x0, 0x0, 0x0, 0x0, 0x0, 
	0x0, 0x0, 0x0, 0x0, 0x0, 0x0, 0x0, 0x0, 0x0, 0x0, 0x0, 0x0, 0x0, 0x0, 
	0x0, 0x0, 0x0, 0xc0, 0x0, 0x0, 0x0, 0x0, 0x0, 0x0, 0x0, 0x0, 0x0, 0x0, 
	0x8, 0x86, 0x49, 0x22, 0x1, 0x0, 0x8, 0x8, 0x86, 0x84, 0x80, 0x60, 0x48, 0x0, 
	0x4, 0x49, 0x46, 0xc2, 0x0, 0x0, 0x10, 0x4, 0x89, 0x4, 0x41, 0x90, 0x48, 0x0, 
	0x0, 0x0, 0x0, 0x0, 0x0, 0x0, 0x0, 0x0, 0x0, 0x0, 0x0, 0x0, 0x0, 0x0, 
	0x1e, 0x8f, 0xc7, 0xe3, 0xb1, 0x78, 0x3c, 0x1e, 0x8f, 0x87, 0xc1, 0x60, 0x30, 0x0, 
	0x20, 0x10, 0x8, 0x4, 0x42, 0x85, 0x42, 0xa1, 0x50, 0x8, 0x81, 0x40, 0x20, 0x0, 
	0x3e, 0x9f, 0xcf, 0xe7, 0xf3, 0x5, 0x7e, 0xbf, 0xdf, 0xf, 0x81, 0x40, 0x20, 0x0, 
	0xa1, 0x50, 0x28, 0x14, 0x4a, 0x4, 0x2, 0x81, 0x40, 0x0, 0x81, 0x40, 0x20, 0x0, 
	0xb1, 0x58, 0x2c, 0x16, 0x4b, 0x85, 0x42, 0xa1, 0x50, 0x8, 0x81, 0x40, 0x20, 0x0, 
	0x2e, 0x97, 0xcb, 0xe5, 0xb2, 0x78, 0x3c, 0x1e, 0x8f, 0xc7, 0xe7, 0xf3, 0xf9, 0x0, 
	0x0, 0x0, 0x0, 0x0, 0x0, 0x20, 0x0, 0x0, 0x0, 0x0, 0x0, 0x0, 0x0, 0x0, 
	0x0, 0x0, 0x0, 0x0, 0x0, 0x10, 0x0, 0x0, 0x0, 0x0, 0x0, 0x0, 0x0, 0x0, 
	0x0, 0x0, 0x0, 0x0, 0x0, 0x0, 0x0, 0x0, 0x0, 0x0, 0x0, 0x0, 0x0, 0x0, 
	0x12, 0x0, 0x0, 0x0, 0x0, 0x0, 0x0, 0x0, 0x0, 0x0, 0x0, 0x0, 0x0, 0x0, 
	0xc, 0x13, 0x1, 0xc1, 0x30, 0x49, 0x0, 0x0, 0x2, 0x82, 0x21, 0x41, 0x0, 0x0, 
	0x8a, 0xc, 0x82, 0x20, 0xc9, 0x48, 0x10, 0x0, 0x4, 0x41, 0x22, 0x21, 0x4, 0x0, 
	0x10, 0x0, 0x0, 0x0, 0x0, 0x0, 0x10, 0x20, 0x0, 0x0, 0x0, 0x0, 0x4, 0x0, 
	0x9e, 0x8e, 0xc7, 0xe3, 0xf1, 0x78, 0x0, 0x9e, 0x50, 0x28, 0x14, 0xa, 0x75, 0x0, 
	0xa1, 0x51, 0x28, 0x14, 0xa, 0x85, 0x7c, 0xb1, 0x50, 0x28, 0x14, 0xa, 0x8d, 0x0, 
	0xa1, 0x50, 0x28, 0x14, 0xa, 0x85, 0x0, 0xa9, 0x50, 0x28, 0x14, 0xa, 0x85, 0x0, 
	0xa1, 0x50, 0x28, 0x14, 0xa, 0x85, 0x10, 0xa5, 0x50, 0x28, 0x14, 0x8a, 0x85, 0x0, 
	0xa1, 0x50, 0x28, 0x14, 0xa, 0x85, 0x10, 0xa3, 0x58, 0x2c, 0x16, 0x73, 0x8d, 0x0, 
	0x9e, 0x90, 0xc7, 0xe3, 0xf1, 0x78, 0x0, 0x1e, 0x97, 0xcb, 0xe5, 0x2, 0x75, 0x0, 

}
