#define Font7x13_width 640
#define Font7x13_height 65
static char Font7x13_bits[] = {
	0x0, 0x40, 0x15, 0x0, 0x0, 0x0, 0x0, 0x0, 0x0, 0x0, 0x1, 0x0, 0x20, 0x10, 0x7f, 0x0, 0x0, 0x0, 0x40, 0x20, 0x10, 0x0, 0x4, 0x0, 0x0, 0x0, 0x0, 0x0, 0x0, 0x0, 0x0, 0x0, 0x0, 0x0, 0x0, 0x0, 0x0, 0x0, 0x0, 0x0, 0x0, 0x0, 0x0, 0x0, 0x0, 0x0, 0x0, 0x0, 0x0, 0x0, 0x0, 0x0, 0x0, 0x0, 0x0, 0x0, 0x0, 0x0, 0x0, 0x0, 0x0, 0x0, 0x0, 0x0, 0x0, 0x0, 0x0, 0x0, 0x0, 0x0, 0x0, 0x0, 0x0, 0x0, 0x0, 0x0, 0x0, 0x0, 0x0, 0x0, 
	0x0, 0x80, 0xa, 0x0, 0x0, 0x0, 0x0, 0x0, 0x0, 0x0, 0x1, 0x0, 0x20, 0x10, 0x0, 0x0, 0x0, 0x0, 0x40, 0x20, 0x10, 0x0, 0x4, 0x0, 0x0, 0x0, 0x0, 0x0, 0x0, 0x0, 0x0, 0x0, 0x0, 0x0, 0x0, 0x0, 0x0, 0x0, 0x0, 0x0, 0x0, 0x0, 0x0, 0x0, 0x0, 0x0, 0x0, 0x0, 0x0, 0x0, 0x0, 0x0, 0x0, 0x0, 0x0, 0x0, 0x0, 0x0, 0x0, 0x0, 0x0, 0x0, 0x0, 0x0, 0x0, 0x0, 0x0, 0x0, 0x0, 0x0, 0x0, 0x0, 0x0, 0x0, 0x0, 0x0, 0x0, 0x0, 0x0, 0x0, 
	0x35, 0x40, 0xb5, 0xe0, 0x30, 0x4, 0x18, 0x80, 0x41, 0x4, 0x1, 0x0, 0x20, 0x10, 0x0, 0x0, 0x0, 0x0, 0x40, 0x20, 0x10, 0x0, 0x4, 0x0, 0x0, 0x0, 0x70, 0x0, 0x0, 0x4, 0x5, 0x0, 0x10, 0x1, 0x10, 0x10, 0x2, 0x0, 0x0, 0x0, 0x0, 0x40, 0xc, 0x84, 0xe7, 0x7, 0xf9, 0x71, 0x7e, 0x1e, 0xf, 0x0, 0x0, 0x2, 0x8, 0x3c, 0x1e, 0xc6, 0xc7, 0xf3, 0xf9, 0xfd, 0x3c, 0x21, 0x1f, 0x2e, 0x14, 0x8, 0x85, 0x3c, 0x1f, 0xcf, 0xc7, 0xe3, 0xb, 0x85, 0x42, 0x21, 0xd1, 0xf, 
	0x0, 0x80, 0xaa, 0x20, 0x8, 0x4, 0x24, 0x88, 0x42, 0x4, 0x1, 0x0, 0x20, 0x10, 0x80, 0x3f, 0x0, 0x0, 0x40, 0x20, 0x10, 0x0, 0x4, 0x0, 0x0, 0x0, 0x89, 0x0, 0x0, 0x4, 0x85, 0x82, 0x28, 0x1, 0x10, 0x8, 0x4, 0x0, 0x0, 0x0, 0x0, 0x40, 0x12, 0x46, 0x8, 0x84, 0x9, 0x8, 0x40, 0xa1, 0x10, 0x0, 0x0, 0x1, 0x10, 0x42, 0x21, 0x89, 0x28, 0x24, 0xa, 0x4, 0x42, 0x21, 0x4, 0x24, 0x12, 0x98, 0x85, 0x42, 0xa1, 0x50, 0x28, 0x84, 0x8, 0x85, 0x42, 0x21, 0x11, 0x8, 
	0x21, 0x44, 0xf5, 0x60, 0x8, 0x4, 0x24, 0x88, 0x82, 0x2, 0x1, 0x0, 0x20, 0x10, 0x0, 0x0, 0x0, 0x0, 0x40, 0x20, 0x10, 0x0, 0x4, 0x6c, 0x0, 0x80, 0x8, 0x0, 0x0, 0x4, 0x85, 0xc2, 0x93, 0x18, 0x10, 0x8, 0x84, 0x4, 0x1, 0x0, 0x0, 0x20, 0x21, 0x45, 0x8, 0x42, 0x9, 0x4, 0x20, 0xa1, 0x10, 0x2, 0x81, 0x0, 0x20, 0x42, 0xa1, 0x90, 0x28, 0x20, 0xa, 0x4, 0x2, 0x21, 0x4, 0x24, 0x11, 0x98, 0x8d, 0x42, 0xa1, 0x50, 0x28, 0x80, 0x8, 0x85, 0x42, 0x12, 0xa, 0x4, 
	0x0, 0x8e, 0xaa, 0x20, 0x8, 0x4, 0x18, 0xbe, 0x82, 0x2, 0x1, 0x0, 0x20, 0x10, 0x0, 0x0, 0x0, 0x0, 0x40, 0x20, 0x10, 0x0, 0x4, 0x83, 0xf1, 0xfb, 0x9, 0x0, 0x0, 0x4, 0xc0, 0xa7, 0x40, 0x24, 0x0, 0x4, 0x8, 0x3, 0x1, 0x0, 0x0, 0x20, 0x21, 0x4, 0x8, 0x21, 0xe9, 0x4, 0x10, 0xa1, 0x18, 0x87, 0x43, 0xf8, 0x41, 0x40, 0xb9, 0x90, 0x28, 0x20, 0xa, 0x4, 0x2, 0x21, 0x4, 0xa4, 0x10, 0x68, 0x95, 0x42, 0xa1, 0x50, 0x28, 0x80, 0x8, 0x49, 0x42, 0x12, 0xa, 0x2, 
	0x21, 0x5f, 0xb5, 0xae, 0xb3, 0xdd, 0x1, 0x88, 0x6, 0xfd, 0xf1, 0xc0, 0xe3, 0xff, 0x0, 0xc0, 0x1f, 0x0, 0xc0, 0x3f, 0xfe, 0x7f, 0xc4, 0x0, 0x26, 0x41, 0x1c, 0x18, 0x0, 0x4, 0x80, 0xc2, 0x41, 0x24, 0x0, 0x4, 0xc8, 0xcf, 0x7, 0xf0, 0x1, 0x10, 0x21, 0x4, 0x84, 0x13, 0x19, 0x75, 0x10, 0x1e, 0x17, 0x2, 0x21, 0x0, 0x80, 0x20, 0xa5, 0x90, 0x27, 0x20, 0x7a, 0x3c, 0x2, 0x3f, 0x4, 0x64, 0x10, 0x68, 0xa5, 0x42, 0x9f, 0xd0, 0xc7, 0x83, 0x8, 0x49, 0x5a, 0xc, 0x4, 0x3, 
	0x80, 0xbf, 0xa, 0x84, 0x80, 0x42, 0x0, 0x8, 0x4, 0x8, 0x80, 0x40, 0x0, 0x10, 0x0, 0x0, 0x0, 0x0, 0x40, 0x20, 0x0, 0x8, 0x4, 0x83, 0x21, 0x21, 0x8, 0x0, 0x0, 0x4, 0xc0, 0x87, 0x22, 0x18, 0x0, 0x4, 0x8, 0x3, 0x1, 0x0, 0x0, 0x8, 0x21, 0x4, 0x3, 0x14, 0x1, 0x8d, 0x8, 0x21, 0x10, 0x0, 0x40, 0x0, 0x40, 0x10, 0xb5, 0x9f, 0x28, 0x20, 0xa, 0x4, 0x72, 0x21, 0x4, 0xa4, 0x10, 0x8, 0xc5, 0x42, 0x81, 0x50, 0x1, 0x84, 0x8, 0x49, 0x5a, 0x12, 0x4, 0x1, 
	0x21, 0x5f, 0x15, 0x84, 0x81, 0xc1, 0x0, 0x0, 0x4, 0x8, 0x80, 0x40, 0x0, 0x10, 0x0, 0x0, 0x0, 0x0, 0x40, 0x20, 0x0, 0x8, 0x4, 0x6c, 0x20, 0xf9, 0x9, 0x0, 0x0, 0x4, 0x80, 0xe2, 0x91, 0xa4, 0x0, 0x8, 0x84, 0x4, 0x1, 0x0, 0x0, 0x8, 0x21, 0x84, 0x0, 0xf4, 0x3, 0x85, 0x8, 0x21, 0x10, 0x0, 0x80, 0xf8, 0x21, 0x10, 0xa9, 0x90, 0x28, 0x20, 0xa, 0x4, 0x42, 0x21, 0x4, 0x24, 0x11, 0x8, 0x85, 0x42, 0x81, 0x52, 0x2, 0x84, 0x8, 0x31, 0x66, 0x12, 0x84, 0x0, 
	0x0, 0x8e, 0xa, 0x84, 0x80, 0x42, 0x0, 0x3e, 0x4, 0x8, 0x80, 0x40, 0x0, 0x10, 0x0, 0x0, 0xe0, 0xf, 0x40, 0x20, 0x0, 0x8, 0x4, 0x0, 0x20, 0x11, 0x88, 0x0, 0x0, 0x0, 0x80, 0x82, 0x48, 0x45, 0x0, 0x8, 0x4, 0x0, 0xc0, 0x1, 0x20, 0x4, 0x12, 0x44, 0x20, 0x4, 0x9, 0x85, 0x4, 0x21, 0x8, 0x82, 0x3, 0x1, 0x10, 0x0, 0x81, 0x90, 0x28, 0x24, 0xa, 0x4, 0x62, 0x21, 0x44, 0x24, 0x12, 0x8, 0x85, 0x42, 0x81, 0x54, 0x24, 0x84, 0x8, 0x31, 0x66, 0x21, 0x44, 0x0, 
	0x2b, 0x44, 0x15, 0x84, 0x80, 0x42, 0x0, 0x0, 0x1c, 0x8, 0x80, 0x40, 0x0, 0x10, 0x0, 0x0, 0x0, 0x0, 0x40, 0x20, 0x0, 0x8, 0xc4, 0xef, 0x27, 0x9, 0x74, 0x0, 0x0, 0x4, 0x0, 0x0, 0x88, 0xb8, 0x0, 0x10, 0x2, 0x0, 0xc0, 0x0, 0x70, 0x4, 0xc, 0xdf, 0xcf, 0x3, 0xf1, 0x78, 0x4, 0x1e, 0x7, 0x87, 0x1, 0x2, 0x8, 0x10, 0x9e, 0xd0, 0xc7, 0xf3, 0xf9, 0x5, 0x5c, 0x21, 0x9f, 0x23, 0xf4, 0xb, 0x85, 0x3c, 0x1, 0x4f, 0xc8, 0x83, 0xf0, 0x30, 0x42, 0x21, 0xc4, 0xf, 
	0x0, 0x80, 0xa, 0x0, 0x0, 0x0, 0x0, 0x0, 0x0, 0x0, 0x80, 0x40, 0x0, 0x10, 0x0, 0x0, 0x0, 0x0, 0x40, 0x20, 0x0, 0x8, 0x4, 0x0, 0x0, 0x0, 0x0, 0x0, 0x0, 0x0, 0x0, 0x0, 0x0, 0x0, 0x0, 0x0, 0x0, 0x0, 0x20, 0x0, 0x20, 0x0, 0x0, 0x0, 0x0, 0x0, 0x0, 0x0, 0x0, 0x0, 0x0, 0x42, 0x0, 0x0, 0x0, 0x0, 0x0, 0x0, 0x0, 0x0, 0x0, 0x0, 0x0, 0x0, 0x0, 0x0, 0x0, 0x0, 0x0, 0x0, 0x0, 0x10, 0x0, 0x0, 0x0, 0x0, 0x0, 0x0, 0x0, 0x0, 
	0x0, 0x40, 0x15, 0x0, 0x0, 0x0, 0x0, 0x0, 0x0, 0x0, 0x80, 0x40, 0x0, 0x10, 0x0, 0x0, 0x0, 0xf0, 0x47, 0x20, 0x0, 0x8, 0x4, 0x0, 0x0, 0x0, 0x0, 0x0, 0x0, 0x0, 0x0, 0x0, 0x0, 0x0, 0x0, 0x0, 0x0, 0x0, 0x0, 0x0, 0x0, 0x0, 0x0, 0x0, 0x0, 0x0, 0x0, 0x0, 0x0, 0x0, 0x0, 0x0, 0x0, 0x0, 0x0, 0x0, 0x0, 0x0, 0x0, 0x0, 0x0, 0x0, 0x0, 0x0, 0x0, 0x0, 0x0, 0x0, 0x0, 0x0, 0x0, 0x0, 0x0, 0x0, 0x0, 0x0, 0x0, 0x0, 0x0, 0x0, 
	0x0, 0x0, 0x0, 0x0, 0x0, 0x0, 0x0, 0x0, 0x0, 0x0, 0x0, 0x0, 0x0, 0x0, 0x0, 0x0, 0x0, 0x0, 0x0, 0x0, 0x0, 0x0, 0x0, 0x0, 0x0, 0x0, 0x0, 0x0, 0x0, 0x0, 0x0, 0x0, 0x0, 0x0, 0x0, 0x0, 0x0, 0x0, 0x0, 0x0, 0x0, 0x0, 0x0, 0x0, 0x0, 0x0, 0x0, 0x0, 0x0, 0x0, 0x0, 0x0, 0x0, 0x0, 0x0, 0x0, 0x0, 0x0, 0x0, 0x0, 0x0, 0x0, 0x0, 0x0, 0x0, 0x0, 0x0, 0x0, 0x0, 0x0, 0x0, 0x0, 0x0, 0x0, 0x0, 0x0, 0x0, 0x0, 0x0, 0x0, 
	0x0, 0x0, 0x0, 0x0, 0x0, 0x0, 0x0, 0x0, 0x0, 0x0, 0x0, 0x0, 0x0, 0x0, 0x0, 0x0, 0x0, 0x0, 0x0, 0x0, 0x0, 0x0, 0x0, 0x0, 0x0, 0x0, 0x0, 0x0, 0x0, 0x0, 0x0, 0x0, 0x0, 0x0, 0x0, 0x0, 0x0, 0x0, 0x0, 0x0, 0x0, 0x0, 0x0, 0x0, 0x0, 0x0, 0x0, 0x0, 0x0, 0x0, 0x0, 0x0, 0x0, 0x0, 0x0, 0x0, 0x0, 0x0, 0x0, 0x0, 0x0, 0x0, 0x0, 0x0, 0x0, 0x0, 0x0, 0x0, 0x0, 0x0, 0x0, 0x0, 0x0, 0x0, 0x0, 0x0, 0x0, 0x0, 0x0, 0x0, 
	0x0, 0x0, 0x0, 0x0, 0x0, 0x0, 0x0, 0x0, 0x0, 0x0, 0x0, 0x0, 0x0, 0x0, 0x0, 0x0, 0x0, 0x0, 0x0, 0x0, 0x0, 0x0, 0x0, 0x0, 0x0, 0x0, 0x0, 0x0, 0x0, 0x0, 0x0, 0x0, 0x0, 0x0, 0x0, 0x0, 0x0, 0x0, 0x0, 0x0, 0x0, 0x0, 0x0, 0x0, 0x0, 0x0, 0x0, 0x0, 0x0, 0x0, 0x0, 0x0, 0x0, 0x0, 0x0, 0x0, 0x0, 0x0, 0x0, 0x0, 0x0, 0x0, 0x0, 0x0, 0x0, 0x0, 0x0, 0x0, 0x0, 0x0, 0x0, 0x0, 0x0, 0x0, 0x0, 0x0, 0x0, 0x0, 0x0, 0x0, 
	0x1e, 0x80, 0x7, 0x0, 0x20, 0x0, 0x0, 0x0, 0x0, 0x0, 0x0, 0x0, 0x0, 0x0, 0x0, 0x0, 0x0, 0x0, 0x0, 0x0, 0x0, 0x0, 0x0, 0x0, 0x0, 0x0, 0x0, 0x0, 0x38, 0x80, 0x3, 0x0, 0x0, 0x0, 0x0, 0x0, 0x0, 0x0, 0x0, 0x0, 0x0, 0x0, 0x0, 0x0, 0x0, 0x0, 0x0, 0x0, 0x0, 0x0, 0x0, 0x0, 0x0, 0x0, 0x0, 0x0, 0x0, 0x0, 0x0, 0x0, 0x0, 0x0, 0x0, 0x0, 0x0, 0x0, 0xc0, 0x0, 0x0, 0x0, 0x0, 0x0, 0x0, 0x0, 0x0, 0x0, 0x8, 0xe, 0x4, 0x0, 
	0x2, 0x1, 0x4, 0x1, 0x40, 0x0, 0x2, 0x0, 0x10, 0x80, 0x3, 0x8, 0x0, 0x0, 0x1, 0x6, 0x0, 0x0, 0x0, 0x0, 0x0, 0x0, 0x0, 0x0, 0x0, 0x0, 0x0, 0x0, 0x4, 0x4, 0x84, 0x54, 0xab, 0xd5, 0x6a, 0xb5, 0x5a, 0xad, 0x56, 0xab, 0xd5, 0x6a, 0xb5, 0x5a, 0xad, 0x56, 0xab, 0xd5, 0x6a, 0xb5, 0x5a, 0xad, 0x56, 0xab, 0xd5, 0x6a, 0xb5, 0x5a, 0xad, 0x56, 0x3, 0x20, 0x10, 0x1c, 0x40, 0x4, 0x21, 0x91, 0x78, 0x38, 0x0, 0x0, 0xc0, 0xe3, 0x63, 0x0, 0x14, 0x8, 0x2, 0x0, 
	0x2, 0x1, 0x84, 0x2, 0x0, 0x0, 0x2, 0x0, 0x10, 0x40, 0x4, 0x8, 0x20, 0x40, 0x1, 0x4, 0x0, 0x0, 0x0, 0x0, 0x0, 0x0, 0x1, 0x0, 0x0, 0x0, 0x0, 0x0, 0x4, 0x4, 0x44, 0x5, 0x0, 0x0, 0x0, 0x0, 0x0, 0x0, 0x0, 0x0, 0x0, 0x0, 0x0, 0x0, 0x0, 0x0, 0x0, 0x0, 0x0, 0x0, 0x0, 0x0, 0x0, 0x0, 0x0, 0x0, 0x0, 0x0, 0x0, 0x0, 0x0, 0x0, 0x38, 0x22, 0x40, 0x4, 0x21, 0x90, 0x84, 0x40, 0x28, 0x0, 0x20, 0x4, 0x90, 0x20, 0x10, 0x4, 0x0, 0x0, 
	0x2, 0x2, 0x44, 0x4, 0x0, 0x0, 0x2, 0x0, 0x10, 0x40, 0x0, 0x8, 0x0, 0x0, 0x1, 0x4, 0x0, 0x0, 0x0, 0x0, 0x0, 0x0, 0x1, 0x0, 0x0, 0x0, 0x0, 0x0, 0x4, 0x4, 0x44, 0x12, 0xa, 0x85, 0x42, 0xa1, 0x50, 0x28, 0x14, 0xa, 0x85, 0x42, 0xa1, 0x50, 0x28, 0x14, 0xa, 0x85, 0x42, 0xa1, 0x50, 0x28, 0x14, 0xa, 0x85, 0x42, 0xa1, 0x50, 0x28, 0x14, 0x2, 0x20, 0x54, 0x82, 0x90, 0x2, 0xc1, 0x0, 0xb4, 0x78, 0x14, 0x0, 0xa0, 0x5, 0x90, 0x20, 0x8, 0x8, 0x0, 0x0, 
	0x2, 0x2, 0x4, 0x0, 0x0, 0x78, 0x3a, 0x1e, 0x97, 0x47, 0xe0, 0xea, 0x30, 0x60, 0x11, 0x84, 0xa5, 0xe3, 0xe9, 0xb8, 0x3a, 0x9e, 0x47, 0x48, 0x24, 0xa, 0x85, 0x7e, 0x8, 0x4, 0x2, 0x0, 0x0, 0x0, 0x0, 0x0, 0x0, 0x0, 0x0, 0x0, 0x0, 0x0, 0x0, 0x0, 0x0, 0x0, 0x0, 0x0, 0x0, 0x0, 0x0, 0x0, 0x0, 0x0, 0x0, 0x0, 0x0, 0x0, 0x0, 0x0, 0x0, 0x20, 0x14, 0x2, 0x8f, 0x2, 0x21, 0x1, 0x94, 0x44, 0xa, 0x0, 0xa0, 0x6, 0x60, 0xf8, 0x4, 0xa, 0x40, 0x8, 
	0x2, 0x4, 0x4, 0x0, 0x0, 0x80, 0x46, 0xa1, 0x58, 0xe8, 0x11, 0x19, 0x21, 0x40, 0x9, 0x84, 0x6a, 0x14, 0x1a, 0xc5, 0x44, 0x21, 0x41, 0x48, 0x24, 0x92, 0x84, 0x20, 0x6, 0x4, 0xc, 0x10, 0xa, 0x85, 0x42, 0xa1, 0x50, 0x28, 0x14, 0xa, 0x85, 0x42, 0xa1, 0x50, 0x28, 0x14, 0xa, 0x85, 0x42, 0xa1, 0x50, 0x28, 0x14, 0xa, 0x85, 0x42, 0xa1, 0x50, 0x28, 0x14, 0x2, 0x20, 0x14, 0x7, 0xc9, 0x7, 0x20, 0x1, 0x94, 0x78, 0x5, 0x9f, 0xa7, 0x6, 0x0, 0x20, 0x1c, 0x4, 0x40, 0x8, 
	0x2, 0x8, 0x4, 0x0, 0x0, 0xf8, 0x42, 0x81, 0xd0, 0x4f, 0x10, 0x9, 0x21, 0x40, 0x7, 0x84, 0x2a, 0x14, 0xa, 0x85, 0x4, 0x6, 0x41, 0x48, 0xa4, 0x62, 0x84, 0x10, 0x8, 0x4, 0x2, 0x0, 0x0, 0x0, 0x0, 0x0, 0x0, 0x0, 0x0, 0x0, 0x0, 0x0, 0x0, 0x0, 0x0, 0x0, 0x0, 0x0, 0x0, 0x0, 0x0, 0x0, 0x0, 0x0, 0x0, 0x0, 0x0, 0x0, 0x0, 0x0, 0x0, 0x20, 0x54, 0x2, 0x9, 0x1, 0xc1, 0x0, 0x94, 0x0, 0xa, 0x10, 0xa0, 0x5, 0x0, 0x20, 0x0, 0x0, 0x40, 0x8, 
	0x2, 0x8, 0x4, 0x0, 0x0, 0x84, 0x42, 0x81, 0x50, 0x40, 0xe0, 0x8, 0x21, 0x40, 0x9, 0x84, 0x2a, 0x14, 0x1a, 0xc5, 0x4, 0x18, 0x41, 0x88, 0xa2, 0x62, 0xc4, 0x8, 0x4, 0x4, 0x4, 0x10, 0xa, 0x85, 0x42, 0xa1, 0x50, 0x28, 0x14, 0xa, 0x85, 0x42, 0xa1, 0x50, 0x28, 0x14, 0xa, 0x85, 0x42, 0xa1, 0x50, 0x28, 0x14, 0xa, 0x85, 0x42, 0xa1, 0x50, 0x28, 0x14, 0x2, 0x20, 0x38, 0x2, 0xcf, 0x7, 0x1, 0x1, 0xb4, 0x7c, 0x14, 0x10, 0xa0, 0x6, 0x0, 0x0, 0x0, 0x0, 0x40, 0x8, 
	0x2, 0x10, 0x4, 0x0, 0x0, 0xc4, 0x46, 0xa1, 0x58, 0x48, 0x10, 0x8, 0x21, 0x40, 0x11, 0x84, 0x2a, 0x14, 0xea, 0xb8, 0x4, 0x21, 0x51, 0x8c, 0xa2, 0x92, 0xb8, 0x4, 0x4, 0x4, 0x4, 0x0, 0x0, 0x0, 0x0, 0x0, 0x0, 0x0, 0x0, 0x0, 0x0, 0x0, 0x0, 0x0, 0x0, 0x0, 0x0, 0x0, 0x0, 0x0, 0x0, 0x0, 0x0, 0x0, 0x0, 0x0, 0x0, 0x0, 0x0, 0x0, 0x0, 0x20, 0x10, 0xa2, 0x10, 0x1, 0x21, 0x1, 0x84, 0x0, 0x28, 0x0, 0x20, 0x4, 0x0, 0xf8, 0x0, 0x0, 0xc0, 0xc, 
	0x2, 0x10, 0x4, 0x0, 0x0, 0xb8, 0x3a, 0x1e, 0x97, 0x47, 0xe0, 0x9, 0xf9, 0x44, 0x21, 0x9f, 0x28, 0xe4, 0x9, 0x80, 0x4, 0x1e, 0x8e, 0xb, 0x41, 0x9, 0x81, 0x7e, 0x4, 0x4, 0x4, 0xb0, 0x5a, 0xad, 0x56, 0xab, 0xd5, 0x6a, 0xb5, 0x5a, 0xad, 0x56, 0xab, 0xd5, 0x6a, 0xb5, 0x5a, 0xad, 0x56, 0xab, 0xd5, 0x6a, 0xb5, 0x5a, 0xad, 0x56, 0xab, 0xd5, 0x6a, 0xb5, 0x2, 0x20, 0x0, 0x1d, 0x0, 0x1, 0xc1, 0x0, 0x78, 0x0, 0x0, 0x0, 0xc0, 0x3, 0x0, 0x0, 0x0, 0x0, 0x40, 0xb, 
	0x1e, 0x80, 0x7, 0xf0, 0x3, 0x0, 0x0, 0x0, 0x0, 0x0, 0x10, 0x2, 0x0, 0x44, 0x0, 0x0, 0x0, 0x0, 0x8, 0x80, 0x0, 0x0, 0x0, 0x0, 0x0, 0x0, 0x84, 0x0, 0x38, 0x80, 0x3, 0x0, 0x0, 0x0, 0x0, 0x0, 0x0, 0x0, 0x0, 0x0, 0x0, 0x0, 0x0, 0x0, 0x0, 0x0, 0x0, 0x0, 0x0, 0x0, 0x0, 0x0, 0x0, 0x0, 0x0, 0x0, 0x0, 0x0, 0x0, 0x0, 0x0, 0x0, 0x0, 0x0, 0x0, 0x0, 0x0, 0x0, 0x0, 0x0, 0x0, 0x0, 0x0, 0x0, 0x0, 0x0, 0x0, 0x0, 0x40, 0x0, 
	0x0, 0x0, 0x0, 0x0, 0x0, 0x0, 0x0, 0x0, 0x0, 0x0, 0xe0, 0x1, 0x0, 0x38, 0x0, 0x0, 0x0, 0x0, 0x8, 0x80, 0x0, 0x0, 0x0, 0x0, 0x0, 0x0, 0x78, 0x0, 0x0, 0x0, 0x0, 0x0, 0x0, 0x0, 0x0, 0x0, 0x0, 0x0, 0x0, 0x0, 0x0, 0x0, 0x0, 0x0, 0x0, 0x0, 0x0, 0x0, 0x0, 0x0, 0x0, 0x0, 0x0, 0x0, 0x0, 0x0, 0x0, 0x0, 0x0, 0x0, 0x0, 0x0, 0x0, 0x0, 0x0, 0x0, 0x0, 0x0, 0x0, 0x0, 0x0, 0x0, 0x0, 0x0, 0x0, 0x0, 0x0, 0x0, 0x0, 0x0, 
	0x0, 0x0, 0x0, 0x0, 0x0, 0x0, 0x0, 0x0, 0x0, 0x0, 0x0, 0x0, 0x0, 0x0, 0x0, 0x0, 0x0, 0x0, 0x0, 0x0, 0x0, 0x0, 0x0, 0x0, 0x0, 0x0, 0x0, 0x0, 0x0, 0x0, 0x0, 0x0, 0x0, 0x0, 0x0, 0x0, 0x0, 0x0, 0x0, 0x0, 0x0, 0x0, 0x0, 0x0, 0x0, 0x0, 0x0, 0x0, 0x0, 0x0, 0x0, 0x0, 0x0, 0x0, 0x0, 0x0, 0x0, 0x0, 0x0, 0x0, 0x0, 0x0, 0x0, 0x0, 0x0, 0x0, 0x0, 0x0, 0x0, 0x0, 0x0, 0x0, 0x0, 0x0, 0x0, 0x0, 0x0, 0x0, 0x0, 0x0, 
	0x0, 0x0, 0x0, 0x0, 0x0, 0x0, 0x0, 0x0, 0x0, 0x0, 0x0, 0x0, 0x0, 0x0, 0x0, 0x0, 0x0, 0x0, 0x0, 0x0, 0x0, 0x0, 0x0, 0x0, 0x0, 0x0, 0x0, 0x0, 0x0, 0x0, 0x0, 0x0, 0x0, 0x0, 0x0, 0x0, 0x0, 0x0, 0x0, 0x0, 0x0, 0x0, 0x0, 0x0, 0x0, 0x0, 0x0, 0x0, 0x0, 0x0, 0x0, 0x0, 0x0, 0x0, 0x0, 0x0, 0x0, 0x0, 0x0, 0x0, 0x0, 0x0, 0x0, 0x0, 0x0, 0x0, 0x0, 0x0, 0x0, 0x0, 0x0, 0x0, 0x0, 0x0, 0x0, 0x0, 0x0, 0x0, 0x0, 0x0, 
	0x0, 0x0, 0x0, 0x0, 0x0, 0x0, 0x0, 0x0, 0x0, 0x0, 0x0, 0x0, 0x0, 0x0, 0x0, 0x0, 0x0, 0x0, 0x0, 0x0, 0x0, 0x0, 0x0, 0x0, 0x0, 0x0, 0x0, 0x0, 0x0, 0x0, 0x0, 0x0, 0x0, 0x0, 0x0, 0x0, 0x0, 0x0, 0x0, 0x0, 0x0, 0x0, 0x0, 0x0, 0x0, 0x0, 0x0, 0x0, 0x0, 0x0, 0x0, 0x0, 0x0, 0x0, 0x0, 0x0, 0x0, 0x0, 0x0, 0x0, 0x0, 0x0, 0x0, 0x0, 0x0, 0x0, 0x0, 0x0, 0x0, 0x0, 0x0, 0x0, 0x0, 0x0, 0x0, 0x0, 0x0, 0x0, 0x0, 0x0, 
	0x0, 0x0, 0x80, 0x0, 0x0, 0x8, 0x4, 0x7, 0x0, 0x1, 0xc1, 0x30, 0x49, 0x18, 0x0, 0x0, 0x1, 0xc1, 0x90, 0x10, 0x10, 0x8, 0x11, 0xc0, 0x44, 0x40, 0x30, 0x4c, 0x12, 0x0, 0x88, 0x80, 0x60, 0x48, 0x20, 0x0, 0x0, 0x0, 0x0, 0x0, 0x0, 0x18, 0x0, 0x0, 0x0, 0x0, 0x0, 0x0, 0x0, 0x0, 0x80, 0x4, 0x0, 0x0, 0x0, 0x0, 0x0, 0x0, 0x0, 0x0, 0x0, 0x0, 0x0, 0x0, 0x0, 0x0, 0x0, 0x0, 0x0, 0x0, 0x0, 0x0, 0x0, 0x0, 0x0, 0x0, 0x0, 0x0, 0x0, 0x0, 
	0x3e, 0x0, 0xc0, 0xc0, 0x0, 0xc, 0x6, 0x4, 0x2, 0x82, 0x20, 0xc9, 0x48, 0x24, 0x3a, 0xf, 0x82, 0x20, 0x91, 0x20, 0x8, 0x14, 0xd1, 0x27, 0x83, 0x20, 0x48, 0x32, 0x12, 0x80, 0x7, 0x41, 0x90, 0x48, 0x10, 0x1, 0x6, 0x1, 0xc1, 0x30, 0x49, 0x24, 0x0, 0x0, 0x1, 0xc1, 0x90, 0x10, 0x10, 0xc, 0x9, 0xc3, 0x44, 0x40, 0x30, 0x4c, 0x12, 0x0, 0x80, 0x80, 0x60, 0x48, 0x10, 0x0, 0x9, 0x0, 0x0, 0x0, 0x0, 0x0, 0x0, 0x0, 0x0, 0x0, 0x0, 0x0, 0x0, 0x0, 0x0, 0x0, 
	0x17, 0x0, 0x80, 0x20, 0x29, 0x8, 0x4, 0x2, 0x0, 0x0, 0x0, 0x0, 0x0, 0x18, 0x85, 0x10, 0x0, 0x0, 0x0, 0x0, 0x0, 0x0, 0x80, 0x8, 0x0, 0x0, 0x0, 0x0, 0x0, 0x40, 0xc, 0x0, 0x0, 0x0, 0x0, 0x1f, 0x9, 0x82, 0x20, 0xc9, 0x48, 0x18, 0x0, 0x0, 0x82, 0x20, 0x91, 0x20, 0x8, 0x12, 0x89, 0x22, 0x83, 0x20, 0x48, 0x32, 0x12, 0x4, 0x0, 0x41, 0x90, 0x48, 0x8, 0x1, 0x9, 0x0, 0x0, 0x0, 0x0, 0x0, 0x0, 0x0, 0x0, 0x0, 0x0, 0x0, 0x0, 0x0, 0x0, 0x0, 
	0x17, 0x0, 0x80, 0x20, 0x51, 0x8, 0x4, 0x4, 0x2, 0x83, 0xc1, 0x60, 0x30, 0x18, 0x85, 0xc0, 0xef, 0xf7, 0xfb, 0xf9, 0x7c, 0x3e, 0x9f, 0x28, 0xe4, 0xf1, 0x78, 0x3c, 0x9e, 0x50, 0x2a, 0x14, 0xa, 0x85, 0x44, 0x21, 0x9, 0x0, 0x0, 0x0, 0x0, 0x0, 0x0, 0x0, 0x0, 0x0, 0x0, 0x0, 0x0, 0x0, 0x0, 0x4, 0x0, 0x0, 0x0, 0x0, 0x0, 0x4, 0x8, 0x0, 0x0, 0x0, 0x0, 0x1, 0x0, 0x0, 0x0, 0x0, 0x0, 0x0, 0x0, 0x0, 0x0, 0x0, 0x0, 0x0, 0x0, 0x0, 0x0, 0x0, 
	0x17, 0x0, 0x80, 0xc0, 0xa0, 0x88, 0x24, 0x25, 0x82, 0x44, 0x22, 0x91, 0x48, 0x24, 0x85, 0x40, 0x20, 0x10, 0x8, 0x20, 0x10, 0x8, 0x84, 0x68, 0x14, 0xa, 0x85, 0x42, 0x21, 0x49, 0x2a, 0x14, 0xa, 0x85, 0x44, 0x21, 0x85, 0xc7, 0xe3, 0xf1, 0x78, 0x3c, 0x16, 0x8f, 0xc7, 0xe3, 0xf1, 0x30, 0x18, 0xc, 0x86, 0xa7, 0xe3, 0xf1, 0x78, 0x3c, 0x1e, 0x80, 0x27, 0x14, 0xa, 0x85, 0x42, 0x9d, 0x10, 0x0, 0x0, 0x0, 0x0, 0x0, 0x0, 0x0, 0x0, 0x0, 0x0, 0x0, 0x0, 0x0, 0x0, 0x0, 
	0x16, 0x6, 0xc0, 0x1, 0x40, 0xdd, 0x5e, 0x32, 0x41, 0x28, 0x14, 0xa, 0x85, 0x42, 0x9d, 0x40, 0x20, 0x10, 0x8, 0x20, 0x10, 0x8, 0xc4, 0xa9, 0x14, 0xa, 0x85, 0x42, 0x21, 0x46, 0x29, 0x14, 0xa, 0x85, 0x28, 0x21, 0x5, 0x8, 0x4, 0x2, 0x81, 0x40, 0xa8, 0x50, 0x28, 0x14, 0xa, 0x21, 0x10, 0x8, 0x44, 0x68, 0x14, 0xa, 0x85, 0x42, 0x21, 0x5f, 0x2c, 0x14, 0xa, 0x85, 0x42, 0xa3, 0x10, 0x0, 0x0, 0x0, 0x0, 0x0, 0x0, 0x0, 0x0, 0x0, 0x0, 0x0, 0x0, 0x0, 0x0, 0x0, 
	0x14, 0x0, 0x0, 0xe0, 0xa1, 0xa0, 0x40, 0xa8, 0x40, 0x28, 0x14, 0xa, 0x85, 0x42, 0x87, 0xc0, 0xe3, 0xf1, 0x78, 0x20, 0x10, 0x8, 0x84, 0xa8, 0x14, 0xa, 0x85, 0x42, 0x21, 0x46, 0x29, 0x14, 0xa, 0x85, 0x10, 0x1f, 0x89, 0xcf, 0xe7, 0xf3, 0xf9, 0x7c, 0xbe, 0xc0, 0xef, 0xf7, 0xfb, 0x21, 0x10, 0x8, 0x44, 0x28, 0x14, 0xa, 0x85, 0x42, 0x21, 0x40, 0x2a, 0x14, 0xa, 0x85, 0x42, 0xa1, 0x10, 0x0, 0x0, 0x0, 0x0, 0x0, 0x0, 0x0, 0x0, 0x0, 0x0, 0x0, 0x0, 0x0, 0x0, 0x0, 
	0x14, 0x0, 0x0, 0x0, 0x50, 0xa0, 0x20, 0xa8, 0xd0, 0xef, 0xf7, 0xfb, 0xfd, 0x7e, 0x85, 0x40, 0x20, 0x10, 0x8, 0x20, 0x10, 0x8, 0x84, 0x28, 0x15, 0xa, 0x85, 0x42, 0x21, 0x49, 0x29, 0x14, 0xa, 0x85, 0x10, 0x1, 0x51, 0x28, 0x14, 0xa, 0x85, 0x42, 0x89, 0x40, 0x20, 0x10, 0x8, 0x20, 0x10, 0x8, 0x44, 0x28, 0x14, 0xa, 0x85, 0x42, 0x21, 0x44, 0x29, 0x14, 0xa, 0x85, 0x62, 0xa1, 0x18, 0x0, 0x0, 0x0, 0x0, 0x0, 0x0, 0x0, 0x0, 0x0, 0x0, 0x0, 0x0, 0x0, 0x0, 0x0, 
	0x14, 0x0, 0x0, 0x0, 0x28, 0xe0, 0x10, 0xb8, 0x50, 0x28, 0x14, 0xa, 0x85, 0x42, 0x85, 0x50, 0x20, 0x10, 0x8, 0x20, 0x10, 0x8, 0x84, 0x28, 0x16, 0xa, 0x85, 0x42, 0xa1, 0xd0, 0x28, 0x14, 0xa, 0x85, 0x10, 0x1, 0x51, 0x2c, 0x16, 0x8b, 0xc5, 0x62, 0xa9, 0x50, 0x28, 0x14, 0xa, 0x21, 0x10, 0x8, 0x44, 0x28, 0x14, 0xa, 0x85, 0x42, 0x21, 0xc4, 0x28, 0x16, 0x8b, 0xc5, 0x5c, 0x23, 0x17, 0x0, 0x0, 0x0, 0x0, 0x0, 0x0, 0x0, 0x0, 0x0, 0x0, 0x0, 0x0, 0x0, 0x0, 0x0, 
	0x14, 0x0, 0x0, 0x0, 0x0, 0x80, 0x70, 0x20, 0x4f, 0x28, 0x14, 0xa, 0x85, 0x42, 0x3d, 0xcf, 0xef, 0xf7, 0xfb, 0xf9, 0x7c, 0x3e, 0xdf, 0x27, 0xe4, 0xf1, 0x78, 0x3c, 0x1e, 0x80, 0xc7, 0xe3, 0xf1, 0x78, 0x10, 0x1, 0x8d, 0xcb, 0xe5, 0x72, 0xb9, 0x5c, 0x16, 0x8f, 0xc7, 0xe3, 0xf1, 0xf8, 0x7c, 0x3e, 0x9f, 0x27, 0xe4, 0xf1, 0x78, 0x3c, 0x1e, 0x80, 0xc7, 0xe5, 0x72, 0xb9, 0x40, 0x1d, 0x10, 0x0, 0x0, 0x0, 0x0, 0x0, 0x0, 0x0, 0x0, 0x0, 0x0, 0x0, 0x0, 0x0, 0x0, 0x0, 
	0x0, 0x0, 0x2, 0x0, 0x0, 0x0, 0x0, 0x0, 0x0, 0x0, 0x0, 0x0, 0x0, 0x0, 0x0, 0x4, 0x0, 0x0, 0x0, 0x0, 0x0, 0x0, 0x0, 0x0, 0x0, 0x0, 0x0, 0x0, 0x0, 0x40, 0x0, 0x0, 0x0, 0x0, 0x0, 0x0, 0x0, 0x0, 0x0, 0x0, 0x0, 0x0, 0x0, 0x4, 0x0, 0x0, 0x0, 0x0, 0x0, 0x0, 0x0, 0x0, 0x0, 0x0, 0x0, 0x0, 0x0, 0x40, 0x0, 0x0, 0x0, 0x0, 0x42, 0x81, 0x10, 0x0, 0x0, 0x0, 0x0, 0x0, 0x0, 0x0, 0x0, 0x0, 0x0, 0x0, 0x0, 0x0, 0x0, 0x0, 
	0x0, 0x0, 0x1, 0x0, 0x0, 0x0, 0x0, 0x0, 0x0, 0x0, 0x0, 0x0, 0x0, 0x0, 0x0, 0x2, 0x0, 0x0, 0x0, 0x0, 0x0, 0x0, 0x0, 0x0, 0x0, 0x0, 0x0, 0x0, 0x0, 0x0, 0x0, 0x0, 0x0, 0x0, 0x0, 0x0, 0x0, 0x0, 0x0, 0x0, 0x0, 0x0, 0x0, 0x2, 0x0, 0x0, 0x0, 0x0, 0x0, 0x0, 0x0, 0x0, 0x0, 0x0, 0x0, 0x0, 0x0, 0x0, 0x0, 0x0, 0x0, 0x0, 0x3c, 0x1, 0xf, 0x0, 0x0, 0x0, 0x0, 0x0, 0x0, 0x0, 0x0, 0x0, 0x0, 0x0, 0x0, 0x0, 0x0, 0x0, 
	0x0, 0x0, 0x0, 0x0, 0x0, 0x0, 0x0, 0x0, 0x0, 0x0, 0x0, 0x0, 0x0, 0x0, 0x0, 0x0, 0x0, 0x0, 0x0, 0x0, 0x0, 0x0, 0x0, 0x0, 0x0, 0x0, 0x0, 0x0, 0x0, 0x0, 0x0, 0x0, 0x0, 0x0, 0x0, 0x0, 0x0, 0x0, 0x0, 0x0, 0x0, 0x0, 0x0, 0x0, 0x0, 0x0, 0x0, 0x0, 0x0, 0x0, 0x0, 0x0, 0x0, 0x0, 0x0, 0x0, 0x0, 0x0, 0x0, 0x0, 0x0, 0x0, 0x0, 0x0, 0x0, 0x0, 0x0, 0x0, 0x0, 0x0, 0x0, 0x0, 0x0, 0x0, 0x0, 0x0, 0x0, 0x0, 0x0, 0x0, 
	0x0, 0x0, 0x0, 0x0, 0x0, 0x0, 0x0, 0x0, 0x0, 0x0, 0x0, 0x0, 0x0, 0x0, 0x0, 0x0, 0x0, 0x0, 0x0, 0x0, 0x0, 0x0, 0x0, 0x0, 0x0, 0x0, 0x0, 0x0, 0x0, 0x0, 0x0, 0x0, 0x0, 0x0, 0x0, 0x0, 0x0, 0x0, 0x0, 0x0, 0x0, 0x0, 0x0, 0x0, 0x0, 0x0, 0x0, 0x0, 0x0, 0x0, 0x0, 0x0, 0x0, 0x0, 0x0, 0x0, 0x0, 0x0, 0x0, 0x0, 0x0, 0x0, 0x0, 0x0, 0x0, 0x0, 0x0, 0x0, 0x0, 0x0, 0x0, 0x0, 0x0, 0x0, 0x0, 0x0, 0x0, 0x0, 0x0, 0x0, 
	0x0, 0x0, 0x0, 0x0, 0x0, 0x0, 0x0, 0x0, 0x0, 0x0, 0x0, 0x0, 0x0, 0x0, 0x0, 0x0, 0x0, 0x0, 0x0, 0x0, 0x0, 0x0, 0x0, 0x0, 0x0, 0x0, 0x0, 0x0, 0x0, 0x0, 0x0, 0x0, 0x0, 0x0, 0x0, 0x0, 0x0, 0x0, 0x0, 0x0, 0x0, 0x0, 0x0, 0x0, 0x0, 0x0, 0x0, 0x0, 0x0, 0x0, 0x0, 0x0, 0x0, 0x0, 0x0, 0x0, 0x0, 0x0, 0x0, 0x0, 0x0, 0x0, 0x0, 0x0, 0x0, 0x0, 0x0, 0x0, 0x0, 0x0, 0x0, 0x0, 0x0, 0x0, 0x0, 0x0, 0x0, 0x0, 0x0, 0x0, 
	0x0, 0x0, 0x0, 0x0, 0x0, 0x0, 0x0, 0x0, 0x0, 0x0, 0x0, 0x0, 0x0, 0x0, 0x0, 0x0, 0x0, 0x0, 0x0, 0x0, 0x0, 0x0, 0x0, 0x0, 0x0, 0x0, 0x0, 0x0, 0x0, 0x0, 0x0, 0x0, 0x0, 0x0, 0x0, 0x0, 0x0, 0x0, 0x0, 0x0, 0x0, 0x0, 0x0, 0x0, 0x0, 0x0, 0x0, 0x0, 0x0, 0x0, 0x0, 0x0, 0x0, 0x0, 0x0, 0x0, 0x0, 0x0, 0x0, 0x0, 0x0, 0x0, 0x0, 0x0, 0x0, 0x0, 0x0, 0x0, 0x0, 0x0, 0x0, 0x0, 0x0, 0x0, 0x0, 0x0, 0x0, 0x0, 0x0, 0x0, 
	0x0, 0x0, 0x0, 0x0, 0x0, 0x0, 0x0, 0x0, 0x0, 0x0, 0x0, 0x0, 0x0, 0x0, 0x0, 0x0, 0x0, 0x0, 0x0, 0x0, 0x0, 0x0, 0x0, 0x0, 0x0, 0x0, 0x0, 0x0, 0x0, 0x0, 0x0, 0x0, 0x0, 0x0, 0x0, 0x0, 0x0, 0x0, 0x0, 0x0, 0x0, 0x0, 0x0, 0x0, 0x0, 0x0, 0x0, 0x0, 0x0, 0x0, 0x0, 0x0, 0x0, 0x0, 0x0, 0x0, 0x0, 0x0, 0x0, 0x0, 0x0, 0x0, 0x0, 0x0, 0x0, 0x0, 0x0, 0x0, 0x0, 0x0, 0x0, 0x0, 0x0, 0x0, 0x0, 0x0, 0x0, 0x0, 0x0, 0x0, 
	0x0, 0x0, 0x0, 0x0, 0x0, 0x0, 0x0, 0x0, 0x0, 0x0, 0x0, 0x0, 0x0, 0x0, 0x0, 0x0, 0x0, 0x0, 0x0, 0x0, 0x0, 0x0, 0x0, 0x0, 0x0, 0x0, 0x0, 0x0, 0x0, 0x0, 0x0, 0x0, 0x0, 0x0, 0x0, 0x0, 0x0, 0x0, 0x0, 0x0, 0x0, 0x0, 0x0, 0x0, 0x0, 0x0, 0x0, 0x0, 0x0, 0x0, 0x0, 0x0, 0x0, 0x0, 0x0, 0x0, 0x0, 0x0, 0x0, 0x0, 0x0, 0x0, 0x0, 0x0, 0x0, 0x0, 0x0, 0x0, 0x0, 0x0, 0x0, 0x0, 0x0, 0x0, 0x0, 0x0, 0x0, 0x0, 0x0, 0x0, 
	0x0, 0x0, 0x0, 0x0, 0x0, 0x0, 0x0, 0x0, 0x0, 0x0, 0x0, 0x0, 0x0, 0x0, 0x0, 0x0, 0x0, 0x0, 0x0, 0x0, 0x0, 0x0, 0x0, 0x0, 0x0, 0x0, 0x0, 0x0, 0x0, 0x0, 0x0, 0x0, 0x0, 0x0, 0x0, 0x0, 0x0, 0x0, 0x0, 0x0, 0x0, 0x0, 0x0, 0x0, 0x0, 0x0, 0x0, 0x0, 0x0, 0x0, 0x0, 0x0, 0x0, 0x0, 0x0, 0x0, 0x0, 0x0, 0x0, 0x0, 0x0, 0x0, 0x0, 0x0, 0x0, 0x0, 0x0, 0x0, 0x0, 0x0, 0x0, 0x0, 0x0, 0x0, 0x0, 0x0, 0x0, 0x0, 0x0, 0x0, 
	0x0, 0x0, 0x0, 0x0, 0x0, 0x0, 0x0, 0x0, 0x0, 0x0, 0x0, 0x0, 0x0, 0x0, 0x0, 0x0, 0x0, 0x0, 0x0, 0x0, 0x0, 0x0, 0x0, 0x0, 0x0, 0x0, 0x0, 0x0, 0x0, 0x0, 0x0, 0x0, 0x0, 0x0, 0x0, 0x0, 0x0, 0x0, 0x0, 0x0, 0x0, 0x0, 0x0, 0x0, 0x0, 0x0, 0x0, 0x0, 0x0, 0x0, 0x0, 0x0, 0x0, 0x0, 0x0, 0x0, 0x0, 0x0, 0x0, 0x0, 0x0, 0x0, 0x0, 0x0, 0x0, 0x0, 0x0, 0x0, 0x0, 0x0, 0x0, 0x0, 0x0, 0x0, 0x0, 0x0, 0x0, 0x0, 0x0, 0x0, 
	0x0, 0x0, 0x0, 0x0, 0x0, 0x0, 0x0, 0x0, 0x0, 0x0, 0x0, 0x0, 0x0, 0x0, 0x0, 0x0, 0x0, 0x0, 0x0, 0x0, 0x0, 0x0, 0x0, 0x0, 0x0, 0x0, 0x0, 0x0, 0x0, 0x0, 0x0, 0x0, 0x0, 0x0, 0x0, 0x0, 0x0, 0x0, 0x0, 0x0, 0x0, 0x0, 0x0, 0x0, 0x0, 0x0, 0x0, 0x0, 0x0, 0x0, 0x0, 0x0, 0x0, 0x0, 0x0, 0x0, 0x0, 0x0, 0x0, 0x0, 0x0, 0x0, 0x0, 0x0, 0x0, 0x0, 0x0, 0x0, 0x0, 0x0, 0x0, 0x0, 0x0, 0x0, 0x0, 0x0, 0x0, 0x0, 0x0, 0x0, 
	0x0, 0x0, 0x0, 0x0, 0x0, 0x0, 0x0, 0x0, 0x0, 0x0, 0x0, 0x0, 0x0, 0x0, 0x0, 0x0, 0x0, 0x0, 0x0, 0x0, 0x0, 0x0, 0x0, 0x0, 0x0, 0x0, 0x0, 0x0, 0x0, 0x0, 0x0, 0x0, 0x0, 0x0, 0x0, 0x0, 0x0, 0x0, 0x0, 0x0, 0x0, 0x0, 0x0, 0x0, 0x0, 0x0, 0x0, 0x0, 0x0, 0x0, 0x0, 0x0, 0x0, 0x0, 0x0, 0x0, 0x0, 0x0, 0x0, 0x0, 0x0, 0x0, 0x0, 0x0, 0x0, 0x0, 0x0, 0x0, 0x0, 0x0, 0x0, 0x0, 0x0, 0x0, 0x0, 0x0, 0x0, 0x0, 0x0, 0x0, 
	0x0, 0x0, 0x0, 0x0, 0x0, 0x0, 0x0, 0x0, 0x0, 0x0, 0x0, 0x0, 0x0, 0x0, 0x0, 0x0, 0x0, 0x0, 0x0, 0x0, 0x0, 0x0, 0x0, 0x0, 0x0, 0x0, 0x0, 0x0, 0x0, 0x0, 0x0, 0x0, 0x0, 0x0, 0x0, 0x0, 0x0, 0x0, 0x0, 0x0, 0x0, 0x0, 0x0, 0x0, 0x0, 0x0, 0x0, 0x0, 0x0, 0x0, 0x0, 0x0, 0x0, 0x0, 0x0, 0x0, 0x0, 0x0, 0x0, 0x0, 0x0, 0x0, 0x0, 0x0, 0x0, 0x0, 0x0, 0x0, 0x0, 0x0, 0x0, 0x0, 0x0, 0x0, 0x0, 0x0, 0x0, 0x0, 0x0, 0x0, 
	0x0, 0x0, 0x0, 0x0, 0x0, 0x0, 0x0, 0x0, 0x0, 0x0, 0x0, 0x0, 0x0, 0x0, 0x0, 0x0, 0x0, 0x0, 0x0, 0x0, 0x0, 0x0, 0x0, 0x0, 0x0, 0x0, 0x0, 0x0, 0x0, 0x0, 0x0, 0x0, 0x0, 0x0, 0x0, 0x0, 0x0, 0x0, 0x0, 0x0, 0x0, 0x0, 0x0, 0x0, 0x0, 0x0, 0x0, 0x0, 0x0, 0x0, 0x0, 0x0, 0x0, 0x0, 0x0, 0x0, 0x0, 0x0, 0x0, 0x0, 0x0, 0x0, 0x0, 0x0, 0x0, 0x0, 0x0, 0x0, 0x0, 0x0, 0x0, 0x0, 0x0, 0x0, 0x0, 0x0, 0x0, 0x0, 0x0, 0x0, 
	0x0, 0x0, 0x0, 0x0, 0x0, 0x0, 0x0, 0x0, 0x0, 0x0, 0x0, 0x0, 0x0, 0x0, 0x0, 0x0, 0x0, 0x0, 0x0, 0x0, 0x0, 0x0, 0x0, 0x0, 0x0, 0x0, 0x0, 0x0, 0x0, 0x0, 0x0, 0x0, 0x0, 0x0, 0x0, 0x0, 0x0, 0x0, 0x0, 0x0, 0x0, 0x0, 0x0, 0x0, 0x0, 0x0, 0x0, 0x0, 0x0, 0x0, 0x0, 0x0, 0x0, 0x0, 0x0, 0x0, 0x0, 0x0, 0x0, 0x0, 0x0, 0x0, 0x0, 0x0, 0x0, 0x0, 0x0, 0x0, 0x0, 0x0, 0x0, 0x0, 0x0, 0x0, 0x0, 0x0, 0x0, 0x0, 0x0, 0x0, 
	0x0, 0x0, 0x0, 0x0, 0x0, 0x0, 0x0, 0x0, 0x0, 0x0, 0x0, 0x0, 0x0, 0x0, 0x0, 0x0, 0x0, 0x0, 0x0, 0x0, 0x0, 0x0, 0x0, 0x0, 0x0, 0x0, 0x0, 0x0, 0x0, 0x0, 0x0, 0x0, 0x0, 0x0, 0x0, 0x0, 0x0, 0x0, 0x0, 0x0, 0x0, 0x0, 0x0, 0x0, 0x0, 0x0, 0x0, 0x0, 0x0, 0x0, 0x0, 0x0, 0x0, 0x0, 0x0, 0x0, 0x0, 0x0, 0x0, 0x0, 0x0, 0x0, 0x0, 0x0, 0x0, 0x0, 0x0, 0x0, 0x0, 0x0, 0x0, 0x0, 0x0, 0x0, 0x0, 0x0, 0x0, 0x0, 0x0, 0x0, 
	0x0, 0x0, 0x0, 0x0, 0x0, 0x0, 0x0, 0x0, 0x0, 0x0, 0x0, 0x0, 0x0, 0x0, 0x0, 0x0, 0x0, 0x0, 0x0, 0x0, 0x0, 0x0, 0x0, 0x0, 0x0, 0x0, 0x0, 0x0, 0x0, 0x0, 0x0, 0x0, 0x0, 0x0, 0x0, 0x0, 0x0, 0x0, 0x0, 0x0, 0x0, 0x0, 0x0, 0x0, 0x0, 0x0, 0x0, 0x0, 0x0, 0x0, 0x0, 0x0, 0x0, 0x0, 0x0, 0x0, 0x0, 0x0, 0x0, 0x0, 0x0, 0x0, 0x0, 0x0, 0x0, 0x0, 0x0, 0x0, 0x0, 0x0, 0x0, 0x0, 0x0, 0x0, 0x0, 0x0, 0x0, 0x0, 0x0, 0x0, 
	0x0, 0x0, 0x0, 0x0, 0x0, 0x0, 0x0, 0x0, 0x0, 0x0, 0x0, 0x0, 0x0, 0x0, 0x0, 0x0, 0x0, 0x0, 0x0, 0x0, 0x0, 0x0, 0x0, 0x0, 0x0, 0x0, 0x0, 0x0, 0x0, 0x0, 0x0, 0x0, 0x0, 0x0, 0x0, 0x0, 0x0, 0x0, 0x0, 0x0, 0x0, 0x0, 0x0, 0x0, 0x0, 0x0, 0x0, 0x0, 0x0, 0x0, 0x0, 0x0, 0x0, 0x0, 0x0, 0x0, 0x0, 0x0, 0x0, 0x0, 0x0, 0x0, 0x0, 0x0, 0x0, 0x0, 0x0, 0x0, 0x0, 0x0, 0x0, 0x0, 0x0, 0x0, 0x0, 0x0, 0x0, 0x0, 0x0, 0x0, 
	0x0, 0x0, 0x0, 0x0, 0x0, 0x0, 0x0, 0x0, 0x0, 0x0, 0x0, 0x0, 0x0, 0x0, 0x0, 0x0, 0x0, 0x0, 0x0, 0x0, 0x0, 0x0, 0x0, 0x0, 0x0, 0x0, 0x0, 0x0, 0x0, 0x0, 0x0, 0x0, 0x0, 0x0, 0x0, 0x0, 0x0, 0x0, 0x0, 0x0, 0x0, 0x0, 0x0, 0x0, 0x0, 0x0, 0x0, 0x0, 0x0, 0x0, 0x0, 0x0, 0x0, 0x0, 0x0, 0x0, 0x0, 0x0, 0x0, 0x0, 0x0, 0x0, 0x0, 0x0, 0x0, 0x0, 0x0, 0x0, 0x0, 0x0, 0x0, 0x0, 0x0, 0x0, 0x0, 0x0, 0x0, 0x0, 0x0, 0x0, 
	0x0, 0x0, 0x0, 0x0, 0x0, 0x0, 0x0, 0x0, 0x0, 0x0, 0x0, 0x0, 0x0, 0x0, 0x0, 0x0, 0x0, 0x0, 0x0, 0x0, 0x0, 0x0, 0x0, 0x0, 0x0, 0x0, 0x0, 0x0, 0x0, 0x0, 0x0, 0x0, 0x0, 0x0, 0x0, 0x0, 0x0, 0x0, 0x0, 0x0, 0x0, 0x0, 0x0, 0x0, 0x0, 0x0, 0x0, 0x0, 0x0, 0x0, 0x0, 0x0, 0x0, 0x0, 0x0, 0x0, 0x0, 0x0, 0x0, 0x0, 0x0, 0x0, 0x0, 0x0, 0x0, 0x0, 0x0, 0x0, 0x0, 0x0, 0x0, 0x0, 0x0, 0x0, 0x0, 0x0, 0x0, 0x0, 0x0, 0x0, 
	0x0, 0x0, 0x0, 0x0, 0x0, 0x0, 0x0, 0x0, 0x0, 0x0, 0x0, 0x0, 0x0, 0x0, 0x0, 0x0, 0x0, 0x0, 0x0, 0x0, 0x0, 0x0, 0x0, 0x0, 0x0, 0x0, 0x0, 0x0, 0x0, 0x0, 0x0, 0x0, 0x0, 0x0, 0x0, 0x0, 0x0, 0x0, 0x0, 0x0, 0x0, 0x0, 0x0, 0x0, 0x0, 0x0, 0x0, 0x0, 0x0, 0x0, 0x0, 0x0, 0x0, 0x0, 0x0, 0x0, 0x0, 0x0, 0x0, 0x0, 0x0, 0x0, 0x0, 0x0, 0x0, 0x0, 0x0, 0x0, 0x0, 0x0, 0x0, 0x0, 0x0, 0x0, 0x0, 0x0, 0x0, 0x0, 0x0, 0x0, 
	0x0, 0x0, 0x0, 0x0, 0x0, 0x0, 0x0, 0x0, 0x0, 0x0, 0x0, 0x0, 0x0, 0x0, 0x0, 0x0, 0x0, 0x0, 0x0, 0x0, 0x0, 0x0, 0x0, 0x0, 0x0, 0x0, 0x0, 0x0, 0x0, 0x0, 0x0, 0x0, 0x0, 0x0, 0x0, 0x0, 0x0, 0x0, 0x0, 0x0, 0x0, 0x0, 0x0, 0x0, 0x0, 0x0, 0x0, 0x0, 0x0, 0x0, 0x0, 0x0, 0x0, 0x0, 0x0, 0x0, 0x0, 0x0, 0x0, 0x0, 0x0, 0x0, 0x0, 0x0, 0x0, 0x0, 0x0, 0x0, 0x0, 0x0, 0x0, 0x0, 0x0, 0x0, 0x0, 0x0, 0x0, 0x0, 0x0, 0x0, 
	0x0, 0x0, 0x0, 0x0, 0x0, 0x0, 0x0, 0x0, 0x0, 0x0, 0x0, 0x0, 0x0, 0x0, 0x0, 0x0, 0x0, 0x0, 0x0, 0x0, 0x0, 0x0, 0x0, 0x0, 0x0, 0x0, 0x0, 0x0, 0x0, 0x0, 0x0, 0x0, 0x0, 0x0, 0x0, 0x0, 0x0, 0x0, 0x0, 0x0, 0x0, 0x0, 0x0, 0x0, 0x0, 0x0, 0x0, 0x0, 0x0, 0x0, 0x0, 0x0, 0x0, 0x0, 0x0, 0x0, 0x0, 0x0, 0x0, 0x0, 0x0, 0x0, 0x0, 0x0, 0x0, 0x0, 0x0, 0x0, 0x0, 0x0, 0x0, 0x0, 0x0, 0x0, 0x0, 0x0, 0x0, 0x0, 0x0, 0x0, 
	0x0, 0x0, 0x0, 0x0, 0x0, 0x0, 0x0, 0x0, 0x0, 0x0, 0x0, 0x0, 0x0, 0x0, 0x0, 0x0, 0x0, 0x0, 0x0, 0x0, 0x0, 0x0, 0x0, 0x0, 0x0, 0x0, 0x0, 0x0, 0x0, 0x0, 0x0, 0x0, 0x0, 0x0, 0x0, 0x0, 0x0, 0x0, 0x0, 0x0, 0x0, 0x0, 0x0, 0x0, 0x0, 0x0, 0x0, 0x0, 0x0, 0x0, 0x0, 0x0, 0x0, 0x0, 0x0, 0x0, 0x0, 0x0, 0x0, 0x0, 0x0, 0x0, 0x0, 0x0, 0x0, 0x0, 0x0, 0x0, 0x0, 0x0, 0x0, 0x0, 0x0, 0x0, 0x0, 0x0, 0x0, 0x0, 0x0, 0x0, 

}
