#define Font7x13_width 112
#define Font7x13_height 104
#define Font7x13_glyph_h 13
#define Font7x13_glyph_w 7
static char Font7x13_bits[] = {
	0x0, 0x40, 0x15, 0x0, 0x0, 0x0, 0x0, 0x0, 0x0, 0x0, 0x1, 0x0, 0x20, 0x10, 
	0x0, 0x80, 0xa, 0x0, 0x0, 0x0, 0x0, 0x0, 0x0, 0x0, 0x1, 0x0, 0x20, 0x10, 
	0x35, 0x40, 0xb5, 0xe0, 0x30, 0x4, 0x18, 0x80, 0x41, 0x4, 0x1, 0x0, 0x20, 0x10, 
	0x0, 0x80, 0xaa, 0x20, 0x8, 0x4, 0x24, 0x88, 0x42, 0x4, 0x1, 0x0, 0x20, 0x10, 
	0x21, 0x44, 0xf5, 0x60, 0x8, 0x4, 0x24, 0x88, 0x82, 0x2, 0x1, 0x0, 0x20, 0x10, 
	0x0, 0x8e, 0xaa, 0x20, 0x8, 0x4, 0x18, 0xbe, 0x82, 0x2, 0x1, 0x0, 0x20, 0x10, 
	0x21, 0x5f, 0xb5, 0xae, 0xb3, 0xdd, 0x1, 0x88, 0x6, 0xfd, 0xf1, 0xc0, 0xe3, 0xff, 
	0x80, 0xbf, 0xa, 0x84, 0x80, 0x42, 0x0, 0x8, 0x4, 0x8, 0x80, 0x40, 0x0, 0x10, 
	0x21, 0x5f, 0x15, 0x84, 0x81, 0xc1, 0x0, 0x0, 0x4, 0x8, 0x80, 0x40, 0x0, 0x10, 
	0x0, 0x8e, 0xa, 0x84, 0x80, 0x42, 0x0, 0x3e, 0x4, 0x8, 0x80, 0x40, 0x0, 0x10, 
	0x2b, 0x44, 0x15, 0x84, 0x80, 0x42, 0x0, 0x0, 0x1c, 0x8, 0x80, 0x40, 0x0, 0x10, 
	0x0, 0x80, 0xa, 0x0, 0x0, 0x0, 0x0, 0x0, 0x0, 0x0, 0x80, 0x40, 0x0, 0x10, 
	0x0, 0x40, 0x15, 0x0, 0x0, 0x0, 0x0, 0x0, 0x0, 0x0, 0x80, 0x40, 0x0, 0x10, 
	0x7f, 0x0, 0x0, 0x0, 0x40, 0x20, 0x10, 0x0, 0x4, 0x0, 0x0, 0x0, 0x0, 0x0, 
	0x0, 0x0, 0x0, 0x0, 0x40, 0x20, 0x10, 0x0, 0x4, 0x0, 0x0, 0x0, 0x0, 0x0, 
	0x0, 0x0, 0x0, 0x0, 0x40, 0x20, 0x10, 0x0, 0x4, 0x0, 0x0, 0x0, 0x70, 0x0, 
	0x80, 0x3f, 0x0, 0x0, 0x40, 0x20, 0x10, 0x0, 0x4, 0x0, 0x0, 0x0, 0x89, 0x0, 
	0x0, 0x0, 0x0, 0x0, 0x40, 0x20, 0x10, 0x0, 0x4, 0x6c, 0x0, 0x80, 0x8, 0x0, 
	0x0, 0x0, 0x0, 0x0, 0x40, 0x20, 0x10, 0x0, 0x4, 0x83, 0xf1, 0xfb, 0x9, 0x0, 
	0x0, 0xc0, 0x1f, 0x0, 0xc0, 0x3f, 0xfe, 0x7f, 0xc4, 0x0, 0x26, 0x41, 0x1c, 0x18, 
	0x0, 0x0, 0x0, 0x0, 0x40, 0x20, 0x0, 0x8, 0x4, 0x83, 0x21, 0x21, 0x8, 0x0, 
	0x0, 0x0, 0x0, 0x0, 0x40, 0x20, 0x0, 0x8, 0x4, 0x6c, 0x20, 0xf9, 0x9, 0x0, 
	0x0, 0x0, 0xe0, 0xf, 0x40, 0x20, 0x0, 0x8, 0x4, 0x0, 0x20, 0x11, 0x88, 0x0, 
	0x0, 0x0, 0x0, 0x0, 0x40, 0x20, 0x0, 0x8, 0xc4, 0xef, 0x27, 0x9, 0x74, 0x0, 
	0x0, 0x0, 0x0, 0x0, 0x40, 0x20, 0x0, 0x8, 0x4, 0x0, 0x0, 0x0, 0x0, 0x0, 
	0x0, 0x0, 0x0, 0xf0, 0x47, 0x20, 0x0, 0x8, 0x4, 0x0, 0x0, 0x0, 0x0, 0x0, 
	0x0, 0x0, 0x0, 0x0, 0x0, 0x0, 0x0, 0x0, 0x0, 0x0, 0x0, 0x0, 0x0, 0x0, 
	0x0, 0x0, 0x0, 0x0, 0x0, 0x0, 0x0, 0x0, 0x0, 0x0, 0x0, 0x0, 0x0, 0x0, 
	0x0, 0x4, 0x5, 0x0, 0x10, 0x1, 0x10, 0x10, 0x2, 0x0, 0x0, 0x0, 0x0, 0x40, 
	0x0, 0x4, 0x85, 0x82, 0x28, 0x1, 0x10, 0x8, 0x4, 0x0, 0x0, 0x0, 0x0, 0x40, 
	0x0, 0x4, 0x85, 0xc2, 0x93, 0x18, 0x10, 0x8, 0x84, 0x4, 0x1, 0x0, 0x0, 0x20, 
	0x0, 0x4, 0xc0, 0xa7, 0x40, 0x24, 0x0, 0x4, 0x8, 0x3, 0x1, 0x0, 0x0, 0x20, 
	0x0, 0x4, 0x80, 0xc2, 0x41, 0x24, 0x0, 0x4, 0xc8, 0xcf, 0x7, 0xf0, 0x1, 0x10, 
	0x0, 0x4, 0xc0, 0x87, 0x22, 0x18, 0x0, 0x4, 0x8, 0x3, 0x1, 0x0, 0x0, 0x8, 
	0x0, 0x4, 0x80, 0xe2, 0x91, 0xa4, 0x0, 0x8, 0x84, 0x4, 0x1, 0x0, 0x0, 0x8, 
	0x0, 0x0, 0x80, 0x82, 0x48, 0x45, 0x0, 0x8, 0x4, 0x0, 0xc0, 0x1, 0x20, 0x4, 
	0x0, 0x4, 0x0, 0x0, 0x88, 0xb8, 0x0, 0x10, 0x2, 0x0, 0xc0, 0x0, 0x70, 0x4, 
	0x0, 0x0, 0x0, 0x0, 0x0, 0x0, 0x0, 0x0, 0x0, 0x0, 0x20, 0x0, 0x20, 0x0, 
	0x0, 0x0, 0x0, 0x0, 0x0, 0x0, 0x0, 0x0, 0x0, 0x0, 0x0, 0x0, 0x0, 0x0, 
	0x0, 0x0, 0x0, 0x0, 0x0, 0x0, 0x0, 0x0, 0x0, 0x0, 0x0, 0x0, 0x0, 0x0, 
	0x0, 0x0, 0x0, 0x0, 0x0, 0x0, 0x0, 0x0, 0x0, 0x0, 0x0, 0x0, 0x0, 0x0, 
	0xc, 0x84, 0xe7, 0x7, 0xf9, 0x71, 0x7e, 0x1e, 0xf, 0x0, 0x0, 0x2, 0x8, 0x3c, 
	0x12, 0x46, 0x8, 0x84, 0x9, 0x8, 0x40, 0xa1, 0x10, 0x0, 0x0, 0x1, 0x10, 0x42, 
	0x21, 0x45, 0x8, 0x42, 0x9, 0x4, 0x20, 0xa1, 0x10, 0x2, 0x81, 0x0, 0x20, 0x42, 
	0x21, 0x4, 0x8, 0x21, 0xe9, 0x4, 0x10, 0xa1, 0x18, 0x87, 0x43, 0xf8, 0x41, 0x40, 
	0x21, 0x4, 0x84, 0x13, 0x19, 0x75, 0x10, 0x1e, 0x17, 0x2, 0x21, 0x0, 0x80, 0x20, 
	0x21, 0x4, 0x3, 0x14, 0x1, 0x8d, 0x8, 0x21, 0x10, 0x0, 0x40, 0x0, 0x40, 0x10, 
	0x21, 0x84, 0x0, 0xf4, 0x3, 0x85, 0x8, 0x21, 0x10, 0x0, 0x80, 0xf8, 0x21, 0x10, 
	0x12, 0x44, 0x20, 0x4, 0x9, 0x85, 0x4, 0x21, 0x8, 0x82, 0x3, 0x1, 0x10, 0x0, 
	0xc, 0xdf, 0xcf, 0x3, 0xf1, 0x78, 0x4, 0x1e, 0x7, 0x87, 0x1, 0x2, 0x8, 0x10, 
	0x0, 0x0, 0x0, 0x0, 0x0, 0x0, 0x0, 0x0, 0x0, 0x42, 0x0, 0x0, 0x0, 0x0, 
	0x0, 0x0, 0x0, 0x0, 0x0, 0x0, 0x0, 0x0, 0x0, 0x0, 0x0, 0x0, 0x0, 0x0, 
	0x0, 0x0, 0x0, 0x0, 0x0, 0x0, 0x0, 0x0, 0x0, 0x0, 0x0, 0x0, 0x0, 0x0, 
	0x0, 0x0, 0x0, 0x0, 0x0, 0x0, 0x0, 0x0, 0x0, 0x0, 0x0, 0x0, 0x0, 0x0, 
	0x1e, 0xc6, 0xc7, 0xf3, 0xf9, 0xfd, 0x3c, 0x21, 0x1f, 0x2e, 0x14, 0x8, 0x85, 0x3c, 
	0x21, 0x89, 0x28, 0x24, 0xa, 0x4, 0x42, 0x21, 0x4, 0x24, 0x12, 0x98, 0x85, 0x42, 
	0xa1, 0x90, 0x28, 0x20, 0xa, 0x4, 0x2, 0x21, 0x4, 0x24, 0x11, 0x98, 0x8d, 0x42, 
	0xb9, 0x90, 0x28, 0x20, 0xa, 0x4, 0x2, 0x21, 0x4, 0xa4, 0x10, 0x68, 0x95, 0x42, 
	0xa5, 0x90, 0x27, 0x20, 0x7a, 0x3c, 0x2, 0x3f, 0x4, 0x64, 0x10, 0x68, 0xa5, 0x42, 
	0xb5, 0x9f, 0x28, 0x20, 0xa, 0x4, 0x72, 0x21, 0x4, 0xa4, 0x10, 0x8, 0xc5, 0x42, 
	0xa9, 0x90, 0x28, 0x20, 0xa, 0x4, 0x42, 0x21, 0x4, 0x24, 0x11, 0x8, 0x85, 0x42, 
	0x81, 0x90, 0x28, 0x24, 0xa, 0x4, 0x62, 0x21, 0x44, 0x24, 0x12, 0x8, 0x85, 0x42, 
	0x9e, 0xd0, 0xc7, 0xf3, 0xf9, 0x5, 0x5c, 0x21, 0x9f, 0x23, 0xf4, 0xb, 0x85, 0x3c, 
	0x0, 0x0, 0x0, 0x0, 0x0, 0x0, 0x0, 0x0, 0x0, 0x0, 0x0, 0x0, 0x0, 0x0, 
	0x0, 0x0, 0x0, 0x0, 0x0, 0x0, 0x0, 0x0, 0x0, 0x0, 0x0, 0x0, 0x0, 0x0, 
	0x0, 0x0, 0x0, 0x0, 0x0, 0x0, 0x0, 0x0, 0x0, 0x0, 0x0, 0x0, 0x0, 0x0, 
	0x0, 0x0, 0x0, 0x0, 0x0, 0x0, 0x0, 0x0, 0x0, 0xc0, 0x3, 0xf0, 0x0, 0x0, 
	0x1f, 0xcf, 0xc7, 0xe3, 0xb, 0x85, 0x42, 0x21, 0xd1, 0x4f, 0x20, 0x80, 0x20, 0x0, 
	0xa1, 0x50, 0x28, 0x84, 0x8, 0x85, 0x42, 0x21, 0x11, 0x48, 0x20, 0x80, 0x50, 0x0, 
	0xa1, 0x50, 0x28, 0x80, 0x8, 0x85, 0x42, 0x12, 0xa, 0x44, 0x40, 0x80, 0x88, 0x0, 
	0xa1, 0x50, 0x28, 0x80, 0x8, 0x49, 0x42, 0x12, 0xa, 0x42, 0x40, 0x80, 0x0, 0x0, 
	0x9f, 0xd0, 0xc7, 0x83, 0x8, 0x49, 0x5a, 0xc, 0x4, 0x43, 0x80, 0x80, 0x0, 0x0, 
	0x81, 0x50, 0x1, 0x84, 0x8, 0x49, 0x5a, 0x12, 0x4, 0x41, 0x0, 0x81, 0x0, 0x0, 
	0x81, 0x52, 0x2, 0x84, 0x8, 0x31, 0x66, 0x12, 0x84, 0x40, 0x0, 0x81, 0x0, 0x0, 
	0x81, 0x54, 0x24, 0x84, 0x8, 0x31, 0x66, 0x21, 0x44, 0x40, 0x0, 0x82, 0x0, 0x0, 
	0x1, 0x4f, 0xc8, 0x83, 0xf0, 0x30, 0x42, 0x21, 0xc4, 0x4f, 0x0, 0x82, 0x0, 0x0, 
	0x0, 0x10, 0x0, 0x0, 0x0, 0x0, 0x0, 0x0, 0x0, 0xc0, 0x3, 0xf0, 0x0, 0x7e, 
	0x0, 0x0, 0x0, 0x0, 0x0, 0x0, 0x0, 0x0, 0x0, 0x0, 0x0, 0x0, 0x0, 0x0, 
	0x0, 0x0, 0x0, 0x0, 0x0, 0x0, 0x0, 0x0, 0x0, 0x0, 0x0, 0x0, 0x0, 0x0, 
	0x4, 0x0, 0x0, 0x0, 0x0, 0x0, 0x0, 0x0, 0x0, 0x0, 0x0, 0x0, 0x0, 0x0, 
	0x8, 0x40, 0x0, 0x0, 0x2, 0x70, 0x0, 0x1, 0x0, 0x20, 0xc0, 0x0, 0x0, 0x0, 
	0x0, 0x40, 0x0, 0x0, 0x2, 0x88, 0x0, 0x1, 0x4, 0x28, 0x80, 0x0, 0x0, 0x0, 
	0x0, 0x40, 0x0, 0x0, 0x2, 0x8, 0x0, 0x1, 0x0, 0x20, 0x80, 0x0, 0x0, 0x0, 
	0x0, 0x4f, 0xc7, 0xe3, 0xf2, 0x8, 0x5c, 0x1d, 0x6, 0x2c, 0x82, 0xb0, 0x74, 0x3c, 
	0x0, 0xd0, 0x28, 0x14, 0xb, 0x3d, 0x22, 0x23, 0x4, 0x28, 0x81, 0x50, 0x8d, 0x42, 
	0x0, 0x5f, 0x28, 0x10, 0xfa, 0x9, 0x22, 0x21, 0x4, 0xe8, 0x80, 0x50, 0x85, 0x42, 
	0x80, 0x50, 0x28, 0x10, 0xa, 0x8, 0x1c, 0x21, 0x4, 0x28, 0x81, 0x50, 0x85, 0x42, 
	0x80, 0xd8, 0x28, 0x14, 0xb, 0x9, 0x2, 0x21, 0x4, 0x28, 0x82, 0x50, 0x85, 0x42, 
	0x0, 0x57, 0xc7, 0xe3, 0xf2, 0x8, 0x3c, 0x21, 0x9f, 0x28, 0xe4, 0x13, 0x85, 0x3c, 
	0x0, 0x0, 0x0, 0x0, 0x0, 0x0, 0x42, 0x0, 0x80, 0x8, 0x0, 0x0, 0x0, 0x0, 
	0x0, 0x0, 0x0, 0x0, 0x0, 0x0, 0x3c, 0x0, 0x0, 0x7, 0x0, 0x0, 0x0, 0x0, 
	0x0, 0x0, 0x0, 0x0, 0x0, 0x0, 0x0, 0x0, 0x0, 0x0, 0x0, 0x0, 0x0, 0x0, 
	0x0, 0x0, 0x0, 0x0, 0x0, 0x0, 0x0, 0x0, 0x0, 0x0, 0x7, 0x70, 0x0, 0x0, 
	0x0, 0x0, 0x0, 0x0, 0x0, 0x0, 0x0, 0x0, 0x0, 0x80, 0x80, 0x80, 0x90, 0x6a, 
	0x0, 0x0, 0x0, 0x20, 0x0, 0x0, 0x0, 0x0, 0x0, 0x80, 0x80, 0x80, 0xa8, 0x0, 
	0x0, 0x0, 0x0, 0x20, 0x0, 0x0, 0x0, 0x0, 0x0, 0x80, 0x80, 0x80, 0x48, 0x42, 
	0x1d, 0x57, 0xc7, 0xf3, 0x8, 0x89, 0x44, 0xa1, 0xd0, 0xf, 0x81, 0x40, 0x0, 0x0, 
	0xa3, 0x98, 0x28, 0x24, 0x8, 0x89, 0x44, 0x92, 0x10, 0xc4, 0x80, 0x80, 0x1, 0x42, 
	0xa1, 0x90, 0xc0, 0x20, 0x8, 0x89, 0x54, 0x8c, 0x10, 0x2, 0x81, 0x40, 0x0, 0x0, 
	0xa3, 0x98, 0x0, 0x23, 0x8, 0x51, 0x54, 0x8c, 0x18, 0x81, 0x80, 0x80, 0x0, 0x42, 
	0x1d, 0x97, 0x20, 0x24, 0x8a, 0x51, 0x54, 0x12, 0x97, 0x80, 0x80, 0x80, 0x0, 0x0, 
	0x1, 0x90, 0xc0, 0xc3, 0x71, 0x21, 0x28, 0x21, 0xd0, 0x8f, 0x80, 0x80, 0x0, 0x56, 
	0x1, 0x10, 0x0, 0x0, 0x0, 0x0, 0x0, 0x80, 0x10, 0x0, 0x7, 0x70, 0x0, 0x0, 
	0x1, 0x10, 0x0, 0x0, 0x0, 0x0, 0x0, 0x0, 0xf, 0x0, 0x0, 0x0, 0x0, 0x0, 

}
