#define Humidity_width 30
#define Humidity_height 16
static unsigned char Humidity_bits[] = {
   0x40, 0x00, 0x00, 0x00, 0xe0, 0x00, 0x00, 0x00, 0xe0, 0x00, 0x00, 0x00,
   0xf0, 0x01, 0x00, 0x00, 0xf0, 0x01, 0x30, 0x18, 0xe0, 0x00, 0x30, 0x0c,
   0x00, 0x00, 0x00, 0x06, 0x04, 0x00, 0x00, 0x03, 0x0e, 0x00, 0x80, 0x01,
   0x0e, 0x04, 0xc0, 0x00, 0x1f, 0x0e, 0x60, 0x18, 0x1f, 0x0e, 0x30, 0x18,
   0x0e, 0x1f, 0x00, 0x00, 0x00, 0x1f, 0x00, 0x00, 0x00, 0x0e, 0x00, 0x00,
   0x00, 0x00, 0x00, 0x00 };
