#define Pressure_width 30
#define Pressure_height 16
static unsigned char Pressure_bits[] = {
   0x00, 0x00, 0x00, 0x00, 0x00, 0x00, 0x00, 0x00, 0x00, 0x00, 0x00, 0x00,
   0xe0, 0x03, 0x80, 0x03, 0x10, 0x04, 0x80, 0x02, 0x4c, 0x19, 0x80, 0x02,
   0x12, 0x24, 0xa8, 0x3b, 0x02, 0x26, 0xa8, 0x20, 0x04, 0x53, 0x98, 0x38,
   0x81, 0x41, 0xa8, 0x28, 0xc5, 0x51, 0xa8, 0x38, 0x47, 0x31, 0x00, 0x00,
   0xfc, 0x0f, 0x00, 0x00, 0x00, 0x00, 0x00, 0x00, 0x00, 0x00, 0x00, 0x00,
   0x00, 0x00, 0x00, 0x00 };
