#define Temperature_width 30
#define Temperature_height 16
static unsigned char Temperature_bits[] = {
   0x18, 0x00, 0x00, 0x00, 0x24, 0x00, 0x00, 0x00, 0x24, 0x00, 0xe0, 0x00,
   0x34, 0x00, 0xa0, 0x00, 0x24, 0x00, 0xe0, 0x00, 0x34, 0x00, 0x00, 0x3c,
   0x24, 0x00, 0x00, 0x06, 0x34, 0x00, 0x00, 0x02, 0x24, 0x00, 0x00, 0x02,
   0x34, 0x00, 0x00, 0x02, 0x62, 0x00, 0x00, 0x02, 0xb1, 0x00, 0x00, 0x02,
   0x81, 0x00, 0x00, 0x06, 0x81, 0x00, 0x00, 0x3c, 0x42, 0x00, 0x00, 0x00,
   0x3c, 0x00, 0x00, 0x00 };
